<?xml version="1.0" encoding="UTF-8"?>
<svg id="_Слой_2" xmlns="http://www.w3.org/2000/svg" version="1.1" viewBox="0 0 2443 1188">
  <!-- Generator: Adobe Illustrator 29.1.0, SVG Export Plug-In . SVG Version: 2.1.0 Build 142)  -->
  <defs>
    <style>
      .st0 {
        fill: #A6BDD7;
        stroke: #A6BDD7;
        stroke-miterlimit: 10;
        stroke-width: 2px;
      }
    </style>
  </defs>
  <g id="_1">
    <g>
      <path class="st0" d="M712.6,1188l-.7-.8L0,312.8l2.4-.5L1415.4,0l.5.3,1027.1,612.5-3.1,1-1727.3,574.1h0ZM5.4,314.7l708.3,869.7,1722.2-572.4L1414.9,3.2,5.4,314.7Z"/>
      <g>
        <rect class="st0" x="608.4" y="835.1" width="1791.3" height="3" transform="translate(-183.6 499.2) rotate(-17.8)"/>
        <rect class="st0" x="554.8" y="776.7" width="1762" height="3" transform="translate(-166.7 463.6) rotate(-17.3)"/>
        <path class="st0" d="M540.8,976.1l-1.4-4.8c1.9-.6,192.2-57.8,358.2-108.1,125.6-38,259-69.2,376.6-96.8,37.3-8.7,72.6-17,104.4-24.7,82.9-20.2,163.8-50.8,266.3-89.5,56.3-21.3,120.2-45.5,193.6-71.2,202.5-71.2,359.5-113.1,361-113.6l1.3,4.8c-1.6.4-158.3,42.3-360.6,113.4-73.3,25.8-137.1,49.9-193.4,71.2-102.7,38.8-183.7,69.5-266.9,89.7-31.8,7.8-67.1,16-104.4,24.8-117.6,27.5-250.8,58.7-376.3,96.7-166,50.2-356.3,107.5-358.2,108.1h0Z"/>
        <path class="st0" d="M488.6,912.4l-1.7-5.8c2.5-.7,249.4-72.9,354.5-100.5,107.7-28.2,167.6-36.3,246.4-33.2,152.5,6,237-26.4,298.7-50,12.2-4.7,23.7-9.1,34.8-12.8,58.2-19.7,110.6-49.2,166-80.5,51.7-29.1,110.3-62.1,181.8-91.7,114.4-47.3,354.5-114.1,356.9-114.8l1.6,5.8c-2.4.7-242.1,67.4-356.2,114.6-71.2,29.4-127.1,60.9-181.1,91.4-55.7,31.4-108.3,61-167,81-10.9,3.7-22.4,8.1-34.6,12.8-57.1,21.8-133.5,51.1-264.6,51.1s-23.9-.2-36.5-.7c-78.2-3.1-137.6,5-244.7,33-105,27.5-351.9,99.7-354.3,100.4h0Z"/>
        <path class="st0" d="M2055.3,385c-17.4,4.5-34.7,9.2-52,14-17.3,4.8-34.5,9.8-51.8,14.9-34.4,10.3-68.6,21.1-102.4,33.3-4.2,1.5-8.4,3.1-12.6,4.6l-12.6,4.7c-4.2,1.6-8.3,3.4-12.4,5-4.2,1.7-8.3,3.3-12.4,5.2l-12.3,5.4c-4.1,1.9-8.1,3.9-12.1,5.8-8.1,3.8-16,8-24,12.1-4,2-7.9,4.2-11.8,6.4-3.9,2.2-7.9,4.2-11.8,6.5-7.7,4.5-15.5,8.9-23.1,13.7-15.3,9.2-30.3,19.1-45.1,29.3-29.5,20.3-57.9,42.2-86.3,64.3-14.2,11-28.3,22.2-42.6,33.1-14.5,10.8-29.5,20.9-44.8,30.4l-5.8,3.5-2.9,1.8-2.9,1.7-11.7,6.8-11.8,6.5c-2,1.1-3.9,2.2-5.9,3.2l-6,3.1c-16,8.4-32.4,15.9-49,23-33.3,13.9-67.8,25.2-103.2,32.6-4.4.9-8.9,1.6-13.3,2.4l-6.7,1.2-3.3.6c-1.1.2-2.2.3-3.3.5l-26.8,3.5c-9,.9-18,1.7-26.9,2.5l-3.4.3-3.4.2-6.8.4-13.5.7c-36.1,1.5-72.2.6-108.1-2.4l-13.5-1.2c-4.5-.4-9-.8-13.4-1.3-8.9-1-17.9-1.9-26.8-3-17.9-2.1-35.7-4.5-53.5-6.6l-13.3-1.5-13.3-1.3c-2.2-.2-4.5-.4-6.7-.5l-6.7-.4c-4.5-.4-8.9-.4-13.3-.5-2.2,0-4.4-.1-6.7,0h-6.7c-4.5.2-9,.3-13.4.5-4.5.1-8.9.3-13.4.5-4.5.2-8.9.5-13.4.8-17.8,1.2-35.6,3.1-53.3,5.7-17.7,2.6-35.3,5.8-52.8,9.6-17.5,3.7-34.9,8-52.3,12.5-4.3,1.2-8.7,2.2-13,3.4l-13,3.5-26,7.1-208.1,56.5-1-3.8,207.6-57.9,26-7.2,13-3.6c4.3-1.2,8.7-2.3,13-3.5,17.4-4.6,34.9-9,52.5-12.8,17.6-3.8,35.3-7.2,53.2-9.9,17.8-2.7,35.8-4.6,53.8-5.8,4.5-.3,9-.6,13.5-.8,4.5-.2,9-.5,13.5-.6,4.5-.2,9-.3,13.5-.4h6.8c2.2-.2,4.5,0,6.8,0,4.5,0,9.1,0,13.6.5l6.8.4c2.3.1,4.5.3,6.8.5l13.5,1.3,13.4,1.5c17.9,2.1,35.7,4.5,53.5,6.6,8.9,1.1,17.8,2,26.7,3,4.4.5,8.9.9,13.4,1.3l13.4,1.2c35.7,2.8,71.6,3.8,107.3,2.3l13.4-.7,6.7-.3,3.3-.2,3.3-.3c8.9-.8,17.8-1.6,26.7-2.4l26.6-3.4c1.1-.2,2.2-.3,3.3-.5l3.3-.6,6.6-1.2c4.4-.8,8.8-1.5,13.2-2.4,34.9-7.3,69.1-18.4,102.1-32.1,16.4-7.1,32.7-14.5,48.6-22.8l6-3.1c2-1,3.9-2.1,5.9-3.2l11.8-6.5,11.6-6.7,2.9-1.7,2.9-1.8,5.7-3.5c15.2-9.4,30.1-19.3,44.4-30,14.3-10.8,28.4-21.9,42.6-32.9,28.4-22,57-43.9,86.7-64.3,14.9-10.2,29.9-20,45.4-29.3,7.7-4.8,15.5-9.2,23.3-13.7,3.9-2.2,7.9-4.3,11.8-6.5,4-2.1,7.9-4.4,11.9-6.4,8-4.1,16-8.3,24.2-12.1,4.1-1.9,8.1-3.9,12.2-5.8l12.4-5.4c4.1-1.9,8.3-3.5,12.5-5.2,4.2-1.7,8.4-3.4,12.6-5l12.7-4.7c4.2-1.6,8.4-3.1,12.7-4.6,33.9-12,68.3-22.7,102.8-32.9,17.3-5,34.6-10,51.9-14.7,17.3-4.7,34.7-9.4,52.2-13.8l.9,3.8h0Z"/>
        <path class="st0" d="M390.7,792.3l-2.2-6.7c1.8-.6,180.4-58.8,284.5-70.8,136.7-15.7,209.7,4.3,287,25.5,13.8,3.8,28.1,7.7,42.9,11.5l-1.7,6.8c-14.8-3.8-29.2-7.7-43-11.5-76.6-21-148.9-40.9-284.3-25.3-103.4,11.9-281.4,69.9-283.2,70.5h0Z"/>
        <path class="st0" d="M1345.8,738l-1.3-2.7c.9-.4,94.4-44.2,186-140.7,90.1-95,139.8-147.4,241.9-185.2,99.3-36.7,213.9-67.4,215.1-67.7l.8,2.9c-1.1.3-115.6,31-214.8,67.6-101.4,37.5-150.9,89.7-240.7,184.4-91.9,97-185.9,140.9-186.9,141.4h0Z"/>
        <path class="st0" d="M1920.8,304.3c-19,4.9-37.9,10.4-56.7,16.1-18.8,5.7-37.5,11.8-56.1,18.2-18.6,6.5-37,13.3-55.2,20.7-18.2,7.3-36.2,15.2-53.8,23.9-4.4,2.2-8.8,4.4-13.1,6.7-2.2,1.1-4.3,2.3-6.5,3.5l-6.4,3.6-3.2,1.8-3.1,1.9-6.3,3.8c-2.1,1.3-4.1,2.6-6.1,4-2,1.3-4.1,2.6-6.1,4.1l-6,4.2c-1.9,1.5-3.8,3-5.8,4.4l-2.9,2.2-2.8,2.4-5.7,4.7c-3.8,3.1-7.4,6.4-11.2,9.6-3.7,3.2-7.3,6.5-11,9.8l-10.8,10-10.6,10.2c-7,6.8-14,13.7-20.8,20.8-13.7,14-27.1,28.4-40.3,43-26.4,29.1-52.1,59-79.2,87.6-13.6,14.3-27.5,28.4-42.1,41.8-14.6,13.4-29.8,26.2-45.8,37.8-16.1,11.6-32.7,22.5-50.2,31.8-17.5,9.3-35.9,17.1-54.9,22.9-19,5.8-38.6,9.6-58.4,11.2-19.8,1.7-39.6,1.5-59.3,0l.2-2.7c19.6.6,39.2.3,58.7-1.9l3.6-.4c1.2-.1,2.4-.3,3.6-.5l7.2-1.1c2.4-.3,4.8-.8,7.2-1.3l7.2-1.4c2.4-.5,4.8-1.1,7.1-1.7,2.4-.6,4.8-1.1,7.1-1.7l7-2,3.5-1,1.8-.5c.6-.2,1.2-.4,1.7-.6,18.5-6,36.4-14,53.6-23.2,17.2-9.3,33.4-20.2,49.2-31.6,15.8-11.5,30.7-24.2,45.1-37.4,14.5-13.2,28.3-27.1,41.8-41.3,27.1-28.4,52.8-58.2,79.3-87.3,26.5-29.1,53.8-57.7,83.3-84.1,3.7-3.3,7.4-6.6,11.1-9.8,3.8-3.2,7.5-6.5,11.3-9.6l5.7-4.7,2.9-2.4,3-2.3c2-1.5,3.9-3,6-4.5l6.1-4.3c2-1.5,4.1-2.8,6.2-4.1,2.1-1.3,4.2-2.7,6.3-4l6.4-3.8,3.2-1.9,3.2-1.8,6.5-3.6c2.2-1.2,4.4-2.3,6.6-3.5,4.4-2.3,8.8-4.5,13.2-6.7,35.6-17.3,72.6-31.2,109.9-43.8,37.4-12.4,75.2-23.6,113.5-33l.7,2.6h0Z"/>
        <path class="st0" d="M933.4,740.3c-1.1-.5-113.3-47-183.8-62-62-13.1-149.7-20.7-405.4,56.8l-2-6.7c112.7-34.2,200.6-54.4,268.6-62,67.6-7.5,108.9-1.7,140.3,5,71.2,15.1,184,61.9,185.1,62.4l-2.7,6.5h0Z"/>
        <path class="st0" d="M298.1,676c34.4-11.5,69.2-21.6,104.4-30.5,35.1-8.9,70.6-16.6,106.5-22.3,17.9-2.9,35.9-5.2,54.1-6.7,18.1-1.5,36.3-2.4,54.5-1.9l6.8.2c2.3.1,4.6.3,6.8.4l6.8.5,6.8.8c2.3.3,4.5.5,6.8.8l6.8,1.1c4.5.7,9,1.7,13.5,2.6,17.8,3.9,35.3,9.2,52.5,15.2,34.4,12,67.7,26.5,101.1,40.3,33.4,13.8,67.1,27,101.6,37.1,17.3,5,34.8,9.3,52.4,12.5,4.4.7,8.8,1.5,13.3,2.2l13.3,1.8,13.4,1.3c4.5.3,9,.5,13.4.8,17.9.7,35.9,0,53.7-1.9l6.7-.8,3.3-.4c1.1-.1,2.2-.4,3.3-.5l13.2-2.2,13.1-2.8c2.2-.4,4.3-1.1,6.5-1.6l6.5-1.7c34.6-9.4,67.9-23.5,99.1-41.3,31.2-17.8,60.6-38.9,88.3-62,27.7-23,53.8-48.1,78.9-74,12.6-13,24.9-26.2,37.3-39.4l37.3-39.5c12.5-13.1,24.9-26.3,37.9-39.1l4.8-4.8c1.6-1.6,3.3-3.1,4.9-4.7,3.3-3.1,6.6-6.3,9.9-9.4l10.1-9.1c.8-.8,1.7-1.5,2.5-2.3l2.6-2.2,5.2-4.4,5.2-4.4c1.8-1.4,3.6-2.8,5.4-4.2l5.4-4.2c1.8-1.4,3.5-2.9,5.4-4.2l11.1-8c1.8-1.4,3.7-2.6,5.7-3.8l5.7-3.7,5.7-3.7c1.9-1.2,3.9-2.3,5.9-3.5,3.9-2.3,7.8-4.6,11.8-6.9l12.1-6.3c4-2.2,8.2-4,12.3-5.9,16.4-7.8,33.7-13.9,50.9-19.6,17.3-5.4,34.6-10.8,51.9-16,17.4-5.2,34.8-10.3,52.2-15.1,8.7-2.4,17.5-4.7,26.3-7,8.8-2.2,17.6-4.4,26.5-6.4l.4,1.9c-8.8,2-17.5,4.4-26.3,6.7-8.7,2.4-17.4,4.9-26.1,7.4-17.4,5-34.7,10.3-52,15.7-17.3,5.4-34.5,10.9-51.7,16.5-17,5.9-34,12.1-50.2,20-8.2,3.6-16.1,8.1-24,12.3-3.9,2.2-7.7,4.6-11.6,6.9-1.9,1.2-3.9,2.3-5.8,3.5l-5.6,3.7-5.6,3.7c-1.9,1.2-3.8,2.5-5.6,3.8l-10.9,8c-1.8,1.3-3.6,2.8-5.3,4.1l-5.3,4.2c-1.8,1.4-3.5,2.8-5.3,4.2l-5.1,4.4-5.1,4.4-2.6,2.2c-.8.7-1.7,1.5-2.5,2.3l-10,9.1c-3.3,3.1-6.5,6.3-9.8,9.4-1.6,1.6-3.2,3.1-4.8,4.7l-4.8,4.8c-12.8,12.8-25.1,26-37.5,39.2l-37,39.7c-12.3,13.3-24.7,26.5-37.3,39.6-25.2,26.1-51.3,51.5-79.2,74.8-27.9,23.3-57.6,44.7-89.2,62.8-15.8,9.1-32.2,17.2-49,24.3-16.8,7.1-34.1,13.1-51.8,17.9l-6.6,1.7c-2.2.5-4.4,1.2-6.7,1.6l-13.4,2.8-13.5,2.3c-1.1.2-2.2.4-3.4.5l-3.4.4-6.8.8c-18.2,2-36.5,2.6-54.8,1.9-4.6-.3-9.1-.5-13.7-.8l-13.7-1.3-13.6-1.8c-4.5-.7-9-1.5-13.5-2.2-18-3.3-35.7-7.6-53.2-12.8-35-10.3-68.8-23.8-102.2-37.7l-50.1-21c-16.7-6.9-33.5-13.7-50.5-19.7-17-6-34.2-11.4-51.7-15.3l-6.6-1.5c-2.2-.5-4.4-.8-6.6-1.2l-6.6-1.1c-2.2-.3-4.4-.5-6.7-.8l-6.7-.8-6.7-.5c-2.2-.2-4.5-.3-6.7-.5l-6.7-.2c-18-.6-36,.1-54,1.5-18,1.4-35.9,3.6-53.8,6.3-35.7,5.3-71.2,12.6-106.4,21.1-17.6,4.2-35.1,8.8-52.5,13.6-17.4,4.8-34.8,9.9-52,15.4l-.6-1.8h0Z"/>
        <path class="st0" d="M256.8,625c33.2-10.9,66.8-20.4,100.7-28.8,17-4.2,34-8.1,51.1-11.6,17.1-3.5,34.3-6.8,51.6-9.5,34.5-5.4,69.4-9.2,104.5-9.5,17.5-.1,35.1.6,52.6,2.9,8.8,1.2,17.4,2.7,26,4.5,8.6,1.8,17.2,3.7,25.7,5.8,17,4.3,33.8,9.2,50.5,14.5,16.7,5.3,33.2,10.9,49.7,16.5,33,11,66.2,21.7,100.1,28.6,17,3.5,34.1,6.1,51.3,7.5,17.2,1.4,34.5,1.6,51.7.7,17.2-.9,34.4-3.2,51.3-6.6,2.1-.4,4.2-.8,6.4-1.3l6.3-1.5,12.7-2.9c4.2-1,8.5-1.8,12.6-3.1l12.5-3.4c33.4-9.3,66.1-21.2,97.3-36,31.3-14.9,61.1-32.7,89.3-52.8,28.2-20.2,55-42.4,81.4-65.1,26.4-22.7,52.4-45.9,78.7-68.9,13.1-11.5,26.3-22.9,39.8-34.1l10.2-8.3,5.1-4.1,5.2-4c3.5-2.7,6.9-5.4,10.4-8.1l10.5-7.9c1.7-1.3,3.5-2.6,5.3-3.8l5.4-3.8,5.4-3.8c1.8-1.2,3.7-2.4,5.5-3.6l5.5-3.6c1.8-1.2,3.7-2.4,5.6-3.5l11.3-6.8c3.8-2.2,7.7-4.2,11.6-6.3,3.8-2.2,7.8-4,11.8-5.9l6-2.8c2-.9,4.1-1.7,6.1-2.5l6.1-2.5,3.1-1.2,3.1-1.1c16.4-6,33-11.5,49.6-16.9,16.6-5.4,33.3-10.5,50-15.5,33.4-10,67-19.5,100.7-28.4l.8,2.9c-16.8,4.7-33.5,9.6-50.2,14.5-16.7,4.9-33.4,9.9-50,15.1-16.6,5.2-33.2,10.5-49.8,16-16.5,5.5-33,11.2-49.2,17.4l-3.1,1.1-3,1.2-6,2.5c-2,.8-4,1.6-6,2.5l-5.8,2.8c-3.9,1.9-7.8,3.7-11.6,5.8-3.8,2.1-7.6,4.1-11.3,6.3l-11.1,6.7c-1.9,1.1-3.7,2.3-5.5,3.5l-5.4,3.6c-1.8,1.2-3.6,2.4-5.4,3.6l-5.3,3.8-5.3,3.8c-1.8,1.2-3.5,2.5-5.2,3.8l-10.4,7.9c-3.4,2.6-6.8,5.4-10.2,8.1l-5.1,4-5,4.1-10,8.3c-13.3,11.2-26.4,22.7-39.4,34.3l-39,34.8c-13,11.6-26.2,23.1-39.4,34.5-26.4,22.9-53.3,45.3-81.8,65.8l-2.7,1.9-2.7,1.9-5.4,3.7c-3.6,2.5-7.2,5-10.9,7.4l-11.1,7c-3.7,2.3-7.4,4.7-11.2,6.9l-11.4,6.6c-1.9,1.1-3.8,2.2-5.7,3.3l-5.8,3.1-11.7,6.1c-1.9,1.1-3.9,2-5.9,2.9l-5.9,2.8c-31.7,15.1-64.8,27.2-98.6,36.6-8.5,2.3-16.9,4.8-25.5,6.6l-12.8,2.9-6.4,1.5c-2.1.5-4.3.8-6.5,1.3-17.3,3.4-34.8,5.7-52.4,6.7-17.6,1-35.3.7-52.8-.7-17.5-1.5-35-4.1-52.2-7.7-34.4-7.1-67.8-18-100.9-29.2-33-11.2-65.9-22.7-99.5-31.3-8.4-2.2-16.8-4.2-25.3-5.9s-17-3.4-25.5-4.5c-17.1-2.3-34.4-3.2-51.7-3.2-34.7,0-69.3,3.7-103.7,8.8-17.2,2.5-34.4,5.5-51.4,8.9-17.1,3.3-34.1,7-51,11-17,4-33.8,8.3-50.6,12.8-16.8,4.5-33.6,9.3-50.1,14.6l-1-2.9h0Z"/>
        <path class="st0" d="M1736.8,194.3c-16.4,3.8-32.7,7.8-48.9,12.1-8.1,2.1-16.2,4.3-24.4,6.5l-12.1,3.4-6.1,1.7-6.1,1.8c-32.3,9.3-64.3,19.4-95.8,30.9-4,1.4-7.8,3-11.8,4.4l-11.7,4.5-11.6,4.8c-3.9,1.6-7.8,3.1-11.6,4.9-7.6,3.5-15.3,6.8-22.7,10.7-7.4,3.8-14.8,7.8-22,12-14.5,8.4-28.6,17.4-42.6,26.6-14,9.2-27.8,18.8-41.7,28.3-55.2,38.4-110.2,77.4-169,110.7-14.7,8.3-29.6,16.3-44.8,23.7-15.2,7.4-30.6,14.4-46.4,20.6-3.9,1.6-7.9,3-11.9,4.5-4,1.5-7.9,3-12,4.3-4,1.3-8,2.7-12.1,4l-12.2,3.6c-2,.6-4.1,1.2-6.1,1.7l-6.1,1.6-12.2,3.3c-4.1,1.1-8.2,2.1-12.3,3.1l-12.3,3c-2,.5-4.1,1-6.2,1.5l-6.2,1.3-12.4,2.7c-4.1.9-8.3,1.7-12.4,2.5l-12.5,2.3-3.1.6-3.1.5-6.3,1-12.5,2c-4.2.6-8.4,1.1-12.6,1.6l-6.3.8c-2.1.3-4.2.5-6.3.7-33.7,3.4-67.6,4.1-101.4,1.5-33.7-2.7-67.2-8.2-100.1-15.5-32.8-7.3-65.5-14.8-98.8-18.6-33.2-3.9-66.8-3.8-100.2-1.2-8.3.8-16.7,1.6-25,2.4l-6.2.6-6.2.8-12.5,1.7-12.5,1.7c-1,.2-2.1.3-3.1.4l-3.1.5-6.2,1.1-24.8,4.2-3.1.5-3.1.6-6.2,1.2-12.4,2.5-12.4,2.5-6.2,1.2c-2.1.4-4.1.9-6.1,1.4l-24.6,5.6c-8.2,1.9-16.4,3.6-24.5,5.8l-24.5,6.1-12.2,3c-2,.5-4.1,1-6.1,1.5l-6.1,1.6-48.7,13-.6-2,48.6-13.8,6.1-1.7c2-.6,4.1-1.1,6.1-1.6l12.2-3.2,24.4-6.4c8.1-2.2,16.3-4.1,24.5-6l24.6-5.9c2-.5,4.1-1,6.1-1.4l6.2-1.3,12.4-2.6,12.4-2.6,6.2-1.3,3.1-.7,3.1-.6,24.9-4.5,6.2-1.1,3.1-.6c1-.2,2.1-.3,3.1-.5l12.5-1.8,12.5-1.8,6.3-.9,6.3-.7c8.4-.9,16.8-1.8,25.2-2.6,33.6-2.8,67.6-3.1,101.3.5,16.8,1.9,33.6,4.4,50.1,7.7,4.1.8,8.3,1.5,12.4,2.4l12.4,2.6c8.2,1.7,16.4,3.6,24.7,5.4,32.8,7.1,65.8,12.5,99.2,15,33.3,2.4,66.8,1.7,100.1-1.7,2.1-.2,4.2-.4,6.2-.7l6.2-.8c4.2-.5,8.3-1,12.4-1.6l12.4-2,6.2-1,3.1-.5,3.1-.6,12.3-2.3c4.1-.8,8.2-1.5,12.3-2.5l12.3-2.7,6.1-1.3c2-.4,4.1-1,6.1-1.5l12.2-3c4.1-1,8.1-1.9,12.2-3l12.2-3.2,6.1-1.6c2-.5,4.1-1.1,6.1-1.7l12-3.5c4-1.2,7.9-2.6,11.9-3.9,4-1.3,7.9-2.8,11.8-4.2,3.9-1.5,7.8-2.8,11.7-4.5,15.6-6,30.8-13,45.9-20.3,15.1-7.3,29.8-15.2,44.4-23.4,14.6-8.2,29-16.8,43.2-25.6,14.3-8.8,28.3-18,42.3-27.2,14-9.3,27.9-18.7,41.8-28.2l41.6-28.5c13.9-9.5,27.9-18.9,42-28.1s28.4-18.1,43.1-26.5c7.3-4.2,14.8-8.2,22.3-12,7.6-3.9,15.3-7.2,23-10.6,3.8-1.8,7.8-3.3,11.7-4.9l11.7-4.8,11.8-4.4,5.9-2.2c2-.8,3.9-1.5,5.9-2.1,31.8-11.2,64.1-20.9,96.5-29.8,32.5-8.9,65.2-16.9,98.1-24l.4,2h0Z"/>
        <path class="st0" d="M177.1,527.2c31.4-8.7,63-17,94.7-24.9,31.6-8,63.4-15.6,95.2-22.8,31.9-7.1,63.8-13.8,96-19.4l24.2-3.9,12.2-1.6,6.1-.8c2-.3,4-.6,6.1-.7,16.3-1.7,32.7-2.4,49.1-2.7,32.7-.6,65.3.2,97.9.9,32.6.7,65.2,1.4,97.7,1.2,16.3,0,32.5-.4,48.8-.9,16.3-.6,32.5-1.5,48.7-2.7,16.2-1.3,32.4-2.9,48.5-5.1,4-.5,8-1.2,12-1.7l6-.9c2-.3,4-.7,6-1,4-.7,8-1.4,12-2.1l11.9-2.4c4-.7,7.9-1.7,11.9-2.6,4-.9,7.9-1.8,11.8-2.8l11.8-3,11.7-3.4c3.9-1.1,7.7-2.4,11.6-3.7l11.6-3.8c7.7-2.6,15.5-5,23-7.9l22.9-8.5,2.8-1.1,2.8-1.1,5.6-2.3,11.3-4.6,11.3-4.6,11.2-4.9,11.2-4.9c3.7-1.7,7.5-3.2,11.1-5l22-10.5c3.7-1.7,7.3-3.6,10.9-5.4l10.9-5.5c3.6-1.8,7.3-3.6,10.9-5.5l10.8-5.7c7.2-3.8,14.4-7.5,21.6-11.5,28.7-15.4,57-31.5,85.8-47,28.7-15.5,57.9-30.5,88.1-43.1,7.5-3.4,15.2-6.1,22.9-9,7.6-3,15.4-5.5,23.1-8.1,15.5-5.2,31.1-10.1,46.7-14.9,31.3-9.4,62.8-18,94.4-26,15.8-4.1,31.7-7.9,47.5-11.7,15.9-3.7,31.8-7.3,47.8-10.7l.5,2.3c-15.9,3.6-31.7,7.4-47.5,11.4-15.8,3.9-31.6,8-47.3,12.2-31.5,8.4-62.8,17.3-93.9,27-15.6,4.8-31.1,9.8-46.4,15.1-7.7,2.7-15.4,5.2-22.9,8.2-7.6,2.9-15.2,5.7-22.6,9.1-29.9,12.7-58.7,27.8-87.3,43.4l-21.4,11.8-21.3,11.9-21.4,11.9c-7.1,4-14.3,7.8-21.5,11.8-7.1,4-14.4,7.7-21.6,11.5l-10.8,5.7c-3.6,1.9-7.3,3.7-10.9,5.6l-10.9,5.5c-3.7,1.8-7.3,3.7-11,5.5l-22.1,10.6c-3.7,1.8-7.4,3.4-11.2,5.1l-11.2,5-11.2,5-11.3,4.7-11.3,4.7-5.7,2.3-2.8,1.2-2.9,1.1-23,8.6c-7.6,3-15.4,5.4-23.2,8l-11.6,3.9c-3.9,1.3-7.7,2.7-11.7,3.8l-11.8,3.5-11.9,3.1c-4,1.1-8,1.9-12,2.9-4,.9-8,1.9-12,2.6l-12.1,2.4c-4,.7-8.1,1.4-12.1,2.1-2,.3-4,.7-6.1,1l-6.1.9c-4.1.6-8.1,1.2-12.2,1.7-16.2,2.1-32.5,3.7-48.8,5-16.3,1.2-32.7,2.1-49,2.6-16.3.5-32.7.8-49,.9-32.7.1-65.3-.6-97.9-1.4-32.6-.7-65.2-1.8-97.7-1.4-16.2.2-32.5.8-48.6,2.4-2,.2-4,.4-6,.7l-6,.8-12.1,1.5-24.1,3.7c-32.1,5.4-64,11.9-95.9,18.7-63.7,13.7-127.1,29.1-190.2,45.4l-.6-2.2h0Z"/>
        <path class="st0" d="M1622,125.9c-62.2,13.9-124.3,28.8-185.9,45.2-30.8,8.2-61.5,16.7-91.9,26.3-3.8,1.1-7.6,2.4-11.4,3.6l-11.3,3.7-5.7,1.9-5.6,2-11.2,4-5.6,2-5.6,2.1-11.1,4.3c-3.7,1.4-7.4,3-11.1,4.5l-11,4.6c-29.3,12.4-58,26.3-86.9,39.8-28.9,13.5-58.3,26.3-88.2,37.7-29.9,11.4-60.4,21.3-91.1,30.1l-23.1,6.4c-1.9.5-3.9,1-5.8,1.5l-5.8,1.5-11.6,2.9-11.6,2.9c-3.9,1-7.8,1.7-11.7,2.6l-23.4,5.2c-31.4,6.3-62.9,11.6-94.7,15.6-31.8,3.9-63.6,6.5-95.5,8.5-31.9,2-63.8,3.3-95.5,5.4l-11.9.8-11.9,1-11.9,1-11.8,1.3-11.8,1.3-11.8,1.6c-3.9.6-7.9,1-11.8,1.7l-11.7,2.1c-3.9.7-7.8,1.3-11.7,2.1l-11.7,2.4-11.7,2.4-11.7,2.5c-15.6,3.2-31.2,6.6-46.8,10-31.2,6.8-62.2,13.9-93.3,21-62.2,14.2-124.3,29-186.3,43.8l-.5-2.1c30.9-7.9,61.9-15.6,92.9-23.2,31-7.6,62-15.2,93-22.6,31-7.4,62.1-14.6,93.2-21.6,15.6-3.5,31.1-7,46.8-10.3l11.7-2.5,11.7-2.4,11.7-2.4c3.9-.8,7.9-1.5,11.8-2.2,31.5-5.8,63.4-9.1,95.3-11.3,31.9-2.2,63.8-3.6,95.6-5.6,31.8-2,63.5-4.7,95.1-8.6,31.6-4,63-9.4,94.1-15.7l23.3-5.2c3.9-.9,7.8-1.7,11.6-2.6l11.6-2.9,11.6-2.9,5.8-1.4c1.9-.5,3.9-1,5.8-1.5l23-6.3c30.6-8.7,60.9-18.5,90.7-29.7,29.8-11.2,58.9-23.9,87.9-37.3,28.9-13.3,57.7-27.2,87.3-39.5l11.1-4.5c3.7-1.5,7.4-3.1,11.2-4.4l11.2-4.2,5.6-2.1,5.7-2,11.3-3.9,5.7-2,5.7-1.8,11.4-3.6c3.8-1.2,7.6-2.4,11.4-3.6,30.6-9.4,61.4-17.7,92.3-25.7,30.9-7.9,61.9-15.4,93-22.6,31.1-7.2,62.2-14.1,93.5-20.5l.4,2.1h0Z"/>
        <path class="st0" d="M104.8,438.5c121.5-31.3,243.4-61,365.9-88,15.3-3.3,30.7-6.6,46-9.9l23-4.8,11.5-2.4,11.6-2.2,23.1-4.4c7.7-1.4,15.5-2.7,23.2-4.1l11.6-2,11.6-1.9,23.2-3.8c30.9-5.1,61.8-10.4,92.7-15.9,30.9-5.5,61.7-11.2,92.4-17.4l23-4.8,23-5,22.9-5.2,22.8-5.5,22.7-5.9,11.3-3.1c3.8-1.1,7.5-2,11.3-3.2,15-4.3,29.9-9,44.8-13.9,29.8-9.7,59.7-19.3,89.7-28.6,30-9.3,60-18.4,90.2-27,30.2-8.6,60.4-16.9,90.9-24.6,30.4-7.8,61.1-14.4,91.6-21.5l91.8-20.7,91.8-20.6.4,1.7-91.5,21.8-91.5,21.7c-30.5,7.2-61.1,14.1-91.4,22.1-30.3,7.9-60.5,16.4-90.6,25.2-60.2,17.6-120,36.4-179.5,56-14.9,4.9-29.9,9.7-45,14.1-3.8,1.1-7.6,2.1-11.3,3.2l-11.4,3.1-22.8,5.9-22.9,5.6c-7.7,1.8-15.3,3.6-23,5.2l-23,5-23.1,4.7c-30.8,6.2-61.7,11.8-92.5,17.2-30.9,5.4-61.8,10.6-92.8,15.7l-23.2,3.8-11.6,1.9-11.6,2c-7.7,1.4-15.4,2.6-23.1,4l-23.1,4.4-11.5,2.2-11.5,2.3-23,4.6c-15.4,3.1-30.7,6.4-46,9.6-61.3,13.1-122.5,27-183.5,41.2-61.1,14.2-122.1,28.8-183,43.7l-.4-1.6h0Z"/>
        <path class="st0" d="M69.3,397.4l-1.1-4.9c5.4-1.2,548-119.4,799.6-178.4,286.7-67.3,641.1-155.6,644.6-156.5l1.2,4.8c-3.6.9-358,89.2-644.7,156.5-251.6,59.1-794.2,177.3-799.7,178.5h0Z"/>
        <rect class="st0" x="17.7" y="189.9" width="1462.8" height="4.5" transform="translate(-24 171.3) rotate(-12.8)"/>
      </g>
      <g>
        <rect class="st0" x="471.4" y="154.3" width="3" height="1126.3" transform="translate(-353.9 483.4) rotate(-40.8)"/>
        <rect class="st0" x="584.6" y="120.7" width="3" height="1129.3" transform="translate(-309.1 576.2) rotate(-42.5)"/>
        <path class="st0" d="M1091.2,1061.3l-193.5-197.9c-48.3-49.4-92.8-87.2-135.9-123.7-43.4-36.8-84.3-71.5-127.9-116.5-47.3-48.9-70.6-80.5-93.2-111.1-19.3-26.2-37.6-51-69.6-84.9-70.9-74.9-172.7-176.6-173.7-177.6l2.1-2.1c1,1,102.8,102.8,173.7,177.7,32.1,33.9,50.5,58.8,69.9,85.1,22.5,30.5,45.8,62.1,92.9,110.8,43.5,44.9,84.4,79.6,127.7,116.3,43.1,36.6,87.7,74.4,136.1,123.9l193.5,197.9-2.1,2.1h0Z"/>
        <path class="st0" d="M399.2,225.5c17.7,16.2,34.9,32.8,52,49.6,4.3,4.2,8.5,8.4,12.8,12.7l6.4,6.4,6.3,6.4c4.2,4.3,8.4,8.6,12.5,12.9,4.1,4.4,8.3,8.6,12.4,13l12.2,13.2,12,13.4c2,2.2,4,4.5,6,6.8l5.9,6.8c4,4.5,7.8,9.2,11.6,13.8,1.9,2.3,3.8,4.6,5.7,7l5.5,7.2,5.5,7.2,5.2,7.4,2.6,3.7c.9,1.2,1.7,2.5,2.5,3.8,1.6,2.5,3.3,5,4.8,7.6,3.2,5.1,6.3,10.2,9.5,15.3,12.4,20.5,24.5,41.2,37.2,61.5,6.3,10.1,12.8,20.2,19.3,30.2,6.6,9.9,13.4,19.7,20.4,29.4,14,19.3,28.8,38,44.7,55.8,7.9,8.9,16.3,17.4,24.9,25.6,8.6,8.3,17.7,16,27.1,23.4l7.1,5.4,7.3,5.2c2.4,1.8,4.9,3.3,7.4,5,2.5,1.6,5,3.3,7.5,4.8l15.3,9.3c5.1,3.1,10.3,6,15.5,9.1,5.1,3.1,10.4,5.9,15.6,8.8,5.2,3,10.5,5.8,15.8,8.6,10.5,5.7,21.2,11.2,31.8,16.7,5.3,2.8,10.6,5.5,15.9,8.4,2.6,1.4,5.3,2.8,7.9,4.3l7.8,4.5c2.6,1.5,5.2,3.1,7.7,4.6,2.5,1.6,5.1,3.1,7.7,4.7l7.5,5c1.2.8,2.5,1.6,3.7,2.5l3.7,2.6c19.6,13.9,37.9,29.5,55.6,45.6l13.2,12.2,13.1,12.3,26.1,24.7c17.4,16.5,34.6,33.1,51.9,49.7,34.5,33.2,68.9,66.5,103.1,100.1l-1.5,1.5c-68.1-67.4-136.6-134.4-206.8-199.6-17.7-16.1-36-31.5-55.6-45.3l-3.7-2.6c-1.2-.8-2.5-1.7-3.7-2.5l-7.5-4.9c-2.5-1.6-5.1-3.1-7.6-4.7-2.5-1.5-5.1-3.1-7.7-4.6l-7.8-4.4c-2.6-1.5-5.3-2.8-7.9-4.3-5.2-2.9-10.6-5.6-15.9-8.4-10.6-5.5-21.3-11-31.9-16.6-5.3-2.8-10.6-5.6-15.8-8.6-5.2-2.9-10.5-5.8-15.7-8.8-5.2-3-10.4-6-15.5-9l-15.4-9.3c-10.2-6.3-20.3-12.9-29.9-20.2-19.3-14.4-37.3-30.4-53.9-47.9-16.7-17.3-31.9-36.1-46.1-55.5-7-9.8-13.8-19.7-20.5-29.7-6.6-10-13-20.2-19.3-30.4-12.6-20.4-24.7-41.1-37-61.6-3.1-5.1-6.2-10.2-9.4-15.3-1.6-2.5-3.2-5-4.8-7.6-.8-1.3-1.6-2.5-2.5-3.7l-2.5-3.7-5-7.3-5.4-7.1-5.4-7.1c-1.8-2.4-3.7-4.6-5.6-7-3.8-4.6-7.5-9.3-11.4-13.8l-5.8-6.8c-1.9-2.3-3.9-4.6-5.8-6.8l-11.9-13.4-12.1-13.2c-8.1-8.8-16.3-17.5-24.6-26.1l-6.2-6.5-6.2-6.4c-4.2-4.3-8.3-8.6-12.5-12.9-8.4-8.5-16.8-17-25.4-25.4-8.5-8.4-17-16.8-25.7-25.1l1.5-1.6h0Z"/>
        <path class="st0" d="M1329.9,981.8l-112.6-96.8-56.4-48.3-28.3-24.1-14.2-12c-1.2-1-2.4-2-3.6-3l-3.6-2.8-1.8-1.4c-.6-.5-1.2-.9-1.9-1.3l-3.7-2.6c-10.1-6.8-21-12.4-32.3-17.2-11.3-4.8-22.9-8.8-34.7-12.4-23.5-7.2-47.6-12.9-71.6-19.2-24-6.3-48-13-71.3-21.8-23.3-8.8-46.1-19.7-66.5-34.2-10.3-7.2-19.9-15.4-28.8-24.2-8.9-8.8-17.1-18.4-24.7-28.3-7.6-9.9-14.5-20.4-21-31-1.6-2.7-3.3-5.3-4.8-8l-4.7-8.1c-1.5-2.7-3-5.5-4.5-8.2l-2.2-4.1-2.1-4.2-4.2-8.3-4.1-8.4-2-4.2-2-4.2-3.9-8.5c-5.1-11.3-10.1-22.7-15-34-9.8-22.7-19.5-45.5-29.9-67.9-2.6-5.6-5.2-11.2-7.9-16.7-1.4-2.8-2.7-5.6-4.1-8.3l-4.2-8.2-2.1-4.1-2.2-4.1-4.4-8.1-4.6-8c-1.5-2.7-3-5.4-4.7-7.9l-4.8-7.8c-1.6-2.6-3.4-5.1-5.1-7.7-3.3-5.2-7.1-10-10.8-14.9-7.6-9.5-15.8-18.8-24.3-27.7-34.1-35.7-70.4-69.4-107.5-102.1l1.5-1.7c19,15.9,37.6,32.3,55.9,48.9,18.3,16.7,36.3,33.7,53.5,51.6,8.7,8.9,17,18.1,24.9,27.8,3.7,5,7.7,9.9,11.1,15.1,1.8,2.6,3.6,5.1,5.3,7.7l5,7.9c1.7,2.6,3.3,5.3,4.8,8l4.7,8.1,4.5,8.2,2.2,4.1,2.1,4.1,4.3,8.3c1.4,2.8,2.8,5.6,4.1,8.4,2.8,5.6,5.4,11.2,8,16.8,10.5,22.5,20.3,45.3,30.2,67.9,4.9,11.3,10,22.6,15,33.9l3.9,8.4,2,4.2,2,4.2,4.1,8.3,4.2,8.2,2.1,4.1,2.2,4.1c1.5,2.7,2.9,5.4,4.4,8.1l4.6,8c1.5,2.7,3.2,5.3,4.7,7.9,6.4,10.5,13.2,20.8,20.6,30.5,14.8,19.5,32,37.2,52,51.3,19.9,14.2,42.2,24.9,65.1,33.6,23,8.8,46.8,15.4,70.6,21.7l35.9,9.4c12,3.2,24,6.5,35.8,10.2s23.6,7.9,35.1,12.8c11.5,4.9,22.7,10.7,33.1,17.8l3.9,2.7c.6.5,1.3.9,1.9,1.4l1.8,1.5,3.7,3c1.2,1,2.4,2,3.6,3l14.1,12.1,28.1,24.3c18.7,16.2,37.4,32.5,56,48.8,37.2,32.6,74.5,65.3,111.5,98.1l-1.5,1.7h0Z"/>
        <path class="st0" d="M898.8,709.2c-4.8-4.5-9.3-9.1-13.8-13.9-2.2-2.4-4.4-4.8-6.5-7.3-2.1-2.5-4.3-4.9-6.3-7.5-8.3-10.1-16.1-20.5-23.2-31.5-7.1-11-13.5-22.5-18.9-34.5l-3.9-9c-1.3-3-2.4-6-3.7-9.1-2.4-6-4.7-12.1-7-18.2-9.1-24.3-17.7-48.8-26.5-73.2-8.8-24.4-17.6-48.8-26.8-72.9-4.7-12.1-9.4-24.1-14.4-36l-3.8-8.9-3.9-8.8c-2.5-5.9-5.5-11.7-8.2-17.5-1.4-2.9-3-5.7-4.5-8.5l-2.3-4.2c-.8-1.4-1.6-2.8-2.4-4.2l-4.9-8.3c-1.7-2.7-3.4-5.4-5.2-8.2l-2.6-4.1c-.9-1.4-1.8-2.7-2.7-4l-5.5-8c-1.9-2.6-3.8-5.2-5.7-7.8-1.9-2.6-3.8-5.2-5.8-7.7-31.5-40.9-68.7-77.4-109.5-109.2l1.3-1.8c5.2,3.9,10.4,7.8,15.5,11.9,2.5,2,5.1,4,7.6,6.1l7.5,6.2c9.9,8.4,19.6,17.1,29,26.1,4.7,4.4,9.3,9.1,13.9,13.7,2.3,2.3,4.5,4.7,6.8,7,2.2,2.4,4.5,4.7,6.7,7.1,4.3,4.9,8.7,9.7,12.9,14.7,2.1,2.5,4.2,5,6.3,7.5l6.1,7.6c2.1,2.5,4,5.1,6,7.8s3.9,5.2,5.8,7.8l5.6,8c.9,1.3,1.9,2.7,2.8,4l2.7,4.1c1.8,2.7,3.6,5.5,5.3,8.2l5,8.4c.8,1.4,1.7,2.8,2.5,4.2l2.4,4.3c1.6,2.9,3.2,5.7,4.7,8.6,11.9,23.3,21.6,47.4,31.1,71.6,18.9,48.4,35.7,97.5,53.8,146,4.5,12.1,9.2,24.2,14.2,36,5,11.7,11.2,23,17.8,34,6.7,11,14,21.6,21.8,31.9,1.9,2.6,3.9,5.1,5.9,7.7,2,2.5,4,5,6.1,7.5,4.1,5,8.3,9.9,12.7,14.6l-1.6,1.6h0Z"/>
        <path class="st0" d="M674.5,164.8c11.7,9.6,23.1,19.4,34.4,29.5,11.2,10.1,22.3,20.3,33.2,30.8,2.7,2.6,5.4,5.3,8.1,7.9,2.7,2.7,5.4,5.3,8,8.1,2.6,2.7,5.3,5.4,7.9,8.2l7.7,8.4c10.1,11.3,19.8,22.9,28.5,35.5l3.1,4.8c1,1.6,2,3.3,3,4.9,1,1.6,2,3.3,2.9,4.9l2.8,5c3.7,6.7,7.1,13.4,10.4,20.3,6.6,13.6,12.7,27.5,18.5,41.4,11.7,27.9,22.3,56.1,32.9,84.4,10.5,28.3,20.8,56.6,31.4,84.8,5.3,14.1,10.7,28.1,16.3,42.1,5.6,13.9,11.4,27.8,17.8,41.3,3.3,6.7,6.5,13.4,10.3,19.8l1.4,2.4,1.5,2.4,3,4.8,5.9,9.6c7.9,12.8,16,25.5,24.8,37.5,2.3,3,4.4,6,6.8,8.9l3.5,4.4,3.7,4.2c2.4,2.9,5,5.5,7.6,8.2l1,1,1,1,2,1.9c1.4,1.3,2.7,2.6,4.1,3.8l4.2,3.7c.7.6,1.4,1.2,2.1,1.8l2.2,1.7,4.4,3.4,4.6,3.2c3,2.2,6.3,4,9.5,6,1.6,1,3.3,1.8,4.9,2.8l4.9,2.7-.7,1.4c-13.9-6-27-14-38.8-23.7-11.8-9.7-22-21.1-31.4-33.1-2.4-3-4.6-6.1-6.9-9.1-2.2-3.1-4.4-6.2-6.6-9.3-4.3-6.2-8.5-12.5-12.6-18.9l-6.1-9.5-3-4.8-1.5-2.4-1.5-2.5c-4-6.6-7.5-13.4-10.9-20.2-6.6-13.7-12.5-27.6-18.2-41.6-5.7-14-11.1-28.1-16.4-42.2-10.6-28.3-20.8-56.6-31.2-84.9-10.4-28.3-20.8-56.5-32.2-84.4-5.7-13.9-11.5-27.8-17.9-41.3-6.4-13.6-13.2-26.9-21.2-39.4-8.2-12.4-17.7-24.1-27.5-35.4-9.9-11.3-20.2-22.2-30.7-33-10.5-10.7-21.4-21.2-32.4-31.5-11-10.2-22.1-20.5-33.5-30.3l1-1.2h0Z"/>
        <path class="st0" d="M1443.1,944.3l-12.8-10.8-12.9-10.7c-8.6-7.1-17.2-14.2-25.8-21.3l-51.9-42.3c-17.4-14-34.7-28.1-52.2-42-8.8-6.9-17.5-13.8-26.3-20.7-8.8-6.8-17.6-13.7-26.7-19.9-9.1-6.3-18.6-12-28.3-17.4-9.7-5.4-19.6-10.4-29.5-15.6-5-2.6-9.9-5.3-14.8-8.2-4.9-2.8-9.7-5.9-14.3-9.5-2.4-1.7-4.4-3.6-6.6-5.4l-6.4-5.5-6.1-5.9-3.1-2.9-1.5-1.5-1.4-1.5c-7.8-8.1-15.4-16.5-22.4-25.4l-5.3-6.6c-1.8-2.2-3.4-4.5-5.1-6.7l-5-6.8c-1.7-2.3-3.2-4.6-4.8-6.9-12.8-18.5-24.5-37.7-35.5-57.2-22-39.1-41.2-79.5-59.4-120.4-9.1-20.4-18.1-40.9-27-61.3-9-20.5-17.9-40.9-27.3-61.1-2.3-5.1-4.8-10.1-7.2-15.1l-7.4-15c-5.1-9.9-10.2-19.8-15.8-29.5-1.4-2.4-2.7-4.9-4.2-7.2l-4.3-7.1c-1.4-2.4-3-4.7-4.5-7l-2.3-3.5-1.2-1.7-1.2-1.7-4.9-6.8-1.2-1.7-1.3-1.6-2.6-3.3c-3.4-4.4-7-8.7-10.5-12.9-14.4-17-30.2-32.8-46.6-47.9-8.2-7.6-16.7-14.8-25.2-21.9-8.6-7.1-17.3-14-26.3-20.6l1.4-1.9c17.8,13.5,34.9,28,51.4,43.1,8.2,7.6,16.3,15.3,24.1,23.3,4,4,7.8,8,11.6,12.1,1.9,2,3.8,4.1,5.6,6.2,1.8,2.1,3.8,4.1,5.5,6.3,3.6,4.3,7.3,8.5,10.7,12.9l2.6,3.3,1.3,1.6,1.2,1.7,5,6.8c6.5,9.1,12.6,18.6,18.2,28.2,11.3,19.3,21.5,39.2,31.4,59.3,19.7,40.1,38.1,80.9,57.1,121.2l7.2,15.1,7.2,15.1,7.3,15,7.4,15c9.9,19.9,20.2,39.7,31.1,59.1,10.9,19.4,22.4,38.4,35,56.7,12.5,18.3,26.2,35.8,41.4,51.8l1.4,1.5,1.5,1.5,2.9,2.9,5.9,5.8,6.2,5.5c2.1,1.8,4.1,3.7,6.2,5.3,4.2,3.3,8.8,6.3,13.5,9.2,4.7,2.8,9.5,5.5,14.4,8.2,9.8,5.3,19.7,10.5,29.4,16.1,9.7,5.6,19.3,11.6,28.5,18.1,9.2,6.6,17.9,13.6,26.6,20.5,8.7,7,17.4,14.1,26,21.1,17.3,14.2,34.5,28.4,51.6,42.7l51.4,43,25.7,21.5,12.9,10.7,12.9,10.7-1.5,1.8h0Z"/>
        <path class="st0" d="M1554.6,907.4c-10.8-9-21.7-18.3-33.2-28.2-66.1-56.7-140.9-120.9-214.2-130l.4-3c74.2,9.2,149.5,73.7,215.8,130.7,11.5,9.8,22.3,19.2,33.1,28.2l-1.9,2.3h0Z"/>
        <path class="st0" d="M1665.6,870.5l-10-7.8c-56.2-44.1-104.7-82.1-148.5-107.5-47.8-27.6-84.8-36.8-116.8-28.9l-.7-2.9c32.7-8.1,70.5,1.2,119,29.2,44,25.5,92.6,63.6,148.9,107.7l10,7.8-1.8,2.4h0Z"/>
        <path class="st0" d="M1764.4,837.3c-20.2-15.8-40.5-31.5-60.8-47.1-20.3-15.6-40.7-31.1-61.4-46.2-5.2-3.8-10.3-7.5-15.6-11.2l-3.9-2.8-3.9-2.7-3.9-2.7c-1.3-.9-2.7-1.7-4-2.6-10.6-6.9-21.9-12.7-33.7-17.2-11.8-4.5-24.1-7.7-36.6-9.6-12.5-1.8-25.2-2.5-37.9-2.2l-9.5.3-9.5.7c-3.2.2-6.3.6-9.5,1-3.2.4-6.3.7-9.5,1.2-6.3,1-12.6,1.8-18.8,3.2l-9.4,1.8c-3.2.6-6.4,1.3-9.6,1.8-12.8,2.1-25.8,3.4-38.9,2.9-3.3,0-6.5-.4-9.8-.6-3.2-.4-6.5-.7-9.7-1.2-3.2-.5-6.4-1.2-9.7-1.8-3.2-.8-6.4-1.5-9.5-2.5-6.3-1.8-12.5-4-18.5-6.6-6-2.6-11.9-5.4-17.6-8.6-5.7-3.2-11.2-6.6-16.6-10.2-5.4-3.6-10.7-7.4-15.8-11.3-10.3-7.8-20.1-16.2-29.7-24.8-4.8-4.3-9.6-8.6-14.3-13l-14-13.3c-18.3-18.1-35.6-37.3-51.7-57.5-16.1-20.1-30.9-41.3-44.7-63-13.9-21.7-26.8-43.9-39.5-66.2-12.7-22.3-25.2-44.6-38.2-66.6-13.1-22-26.6-43.7-41.2-64.6-14.6-21-30.2-41.2-46.8-60.6-16.6-19.4-34.2-38-52.6-55.7-9.4-8.7-18.7-17.5-28.4-25.8-9.5-8.6-19.5-16.6-29.3-24.8l1.1-1.4,15.1,11.9,3.8,3,1.9,1.5,1.8,1.5,7.4,6.2c9.9,8.1,19.4,16.8,29,25.3,18.9,17.4,37,35.8,53.9,55.1,17,19.3,33,39.5,47.9,60.5,14.9,21,28.9,42.6,42.1,64.6,13.2,22,25.9,44.3,38.7,66.5,12.8,22.2,25.7,44.3,39.5,65.8,13.8,21.5,28.5,42.4,44.3,62.3s32.9,39,51,56.9l13.8,13.2c4.7,4.4,9.4,8.7,14.1,12.9,9.5,8.5,19.2,16.8,29.2,24.5,5,3.9,10.1,7.6,15.4,11.2,5.2,3.6,10.6,6.9,16.1,10,5.5,3.1,11.1,5.9,16.9,8.4,5.8,2.5,11.7,4.6,17.7,6.4,3,.9,6,1.6,9.1,2.4,3.1.6,6.1,1.3,9.2,1.8,3.1.6,6.2.8,9.3,1.2,3.1.2,6.2.5,9.4.6,12.6.5,25.2-.5,37.7-2.5,3.1-.5,6.2-1.1,9.3-1.7l9.5-1.8c6.3-1.3,12.7-2.1,19.1-3,3.2-.5,6.4-.7,9.6-1.1,3.2-.3,6.4-.7,9.7-.9l9.7-.7,9.7-.2c12.9,0,25.9.6,38.8,2.6,12.8,2.1,25.5,5.4,37.6,10.2,12.1,4.7,23.7,10.8,34.5,18,1.3.9,2.7,1.8,4.1,2.7l3.9,2.8,3.9,2.8,3.9,2.8c5.2,3.8,10.3,7.6,15.5,11.5,20.5,15.5,40.7,31.3,60.8,47.1s40.1,32,60,48.1l-1.1,1.4h0Z"/>
        <path class="st0" d="M935.1,107.2c21.1,13.6,41.3,28.4,61,43.9,19.7,15.5,38.8,31.8,57,49.1,9.1,8.7,17.9,17.6,26.5,26.8,8.6,9.2,16.8,18.7,24.7,28.6,7.8,9.8,15.2,20.1,22.1,30.7l10.4,15.6c3.5,5.1,7.2,10.2,10.7,15.3,3.5,5.1,7.3,10.1,11,15.1l5.6,7.5c1.8,2.5,3.8,5,5.7,7.4,3.8,4.9,7.6,9.9,11.4,14.8l11.7,14.6,2.9,3.6,3,3.6,6,7.2c4,4.8,7.9,9.6,12,14.4l12.2,14.2,12.4,14c16.6,18.6,33.6,37,51.1,54.8,17.5,17.8,35.2,35.4,53.8,52.1,4.6,4.3,9.3,8.3,14,12.4,2.4,2,4.7,4.1,7.1,6.1l7.2,5.9,7.2,5.9,7.4,5.7c2.4,1.9,5,3.7,7.5,5.5l3.8,2.7,3.8,2.6c20.4,14,42.5,25.7,66,33.2,2.9,1,5.9,1.8,8.9,2.6,1.5.5,3,.8,4.5,1.2,1.5.4,3,.8,4.5,1.1,3,.6,6,1.3,9.1,1.8,1.5.3,3,.6,4.6.8l4.6.7c12.2,1.7,24.6,2.4,37.1,2.6,12.4.3,25,0,37.6.7,6.3.3,12.6.8,18.9,1.8l2.4.3,2.3.5,4.7,1c1.6.3,3.1.8,4.6,1.2l4.6,1.3c12.2,3.7,23.8,8.5,35.2,13.9,2.8,1.4,5.7,2.7,8.5,4.1l8.4,4.3c5.5,3,11.1,5.9,16.5,9.1,21.8,12.4,42.9,26.1,63.5,40.3,20.6,14.3,40.8,29.1,60.7,44.4,19.9,15.2,39.4,31,58.5,47.2l-.9,1.1c-9.7-7.9-19.5-15.7-29.4-23.3-9.9-7.7-19.8-15.3-29.8-22.7-20-15-40.4-29.5-61.1-43.4-10.4-6.9-20.8-13.8-31.4-20.4l-4-2.5-4-2.4-8-4.8c-5.4-3.1-10.8-6.3-16.2-9.3-5.4-3.1-10.9-6-16.4-8.9l-8.3-4.2c-2.8-1.4-5.6-2.7-8.4-4-11.3-5.2-22.8-9.9-34.6-13.3l-4.4-1.2c-1.5-.4-3-.8-4.5-1.1l-4.5-.9-2.2-.4-2.3-.3c-6.1-.8-12.2-1.3-18.4-1.6-12.4-.5-24.9-.2-37.4-.4-12.6-.1-25.2-.7-37.8-2.4l-4.7-.7c-1.6-.2-3.1-.5-4.7-.8-3.1-.5-6.2-1.2-9.3-1.8-1.6-.3-3.1-.7-4.6-1.1-1.5-.4-3.1-.7-4.6-1.2-3.1-.9-6.1-1.7-9.1-2.7-12.1-3.8-23.9-8.7-35.2-14.4-11.3-5.7-22.2-12.2-32.6-19.3l-3.9-2.7-3.8-2.8c-2.5-1.9-5.2-3.7-7.6-5.6l-7.5-5.8-7.3-6-7.3-6c-2.4-2-4.8-4.1-7.1-6.2-4.7-4.2-9.5-8.2-14.1-12.5-18.7-16.8-36.6-34.4-54.2-52.3-4.4-4.5-8.8-8.9-13.1-13.5l-12.9-13.7c-4.3-4.6-8.5-9.3-12.7-13.9l-6.3-7c-2.1-2.3-4.2-4.7-6.2-7l-12.4-14.1-12.2-14.3c-4.1-4.7-8.1-9.6-12.1-14.5l-6-7.3-3-3.6-2.9-3.7-11.7-14.8c-3.8-5-7.6-10-11.4-15-1.9-2.5-3.8-5-5.7-7.5l-5.5-7.6c-3.7-5.1-7.4-10.1-11-15.3-3.6-5.2-7.2-10.3-10.7-15.5l-10.3-15.8c-6.7-10.5-13.8-20.6-21.4-30.5-1.9-2.4-3.8-4.9-5.8-7.3l-5.9-7.2-6.1-7.1c-2-2.4-4.2-4.6-6.2-7-8.4-9.2-17-18.2-25.9-26.9-17.8-17.4-36.5-34.1-55.8-49.9-9.7-7.9-19.5-15.7-29.4-23.2-10-7.5-20-15-30.3-22l.8-1.2h0Z"/>
        <path class="st0" d="M1970.5,768.9c-40.3-28.5-80.6-57-121.3-85l-30.6-20.9-15.3-10.4c-5.1-3.5-10.2-6.9-15.4-10.3-5.1-3.4-10.3-6.8-15.4-10.2-5.2-3.4-10.3-6.7-15.5-10l-7.8-4.9-7.9-4.7c-1.3-.8-2.6-1.6-4-2.3l-4.1-2.1-4.1-2.2-2-1.1-2.1-1c-22-10.8-45.3-18.5-69.1-25-11.9-3.3-23.8-6.4-35.7-9.7-11.9-3.3-23.8-6.7-35.6-10.6l-4.4-1.4-4.4-1.5-8.8-3.1-8.7-3.3-4.3-1.7-4.3-1.8-8.6-3.6-8.5-3.8c-5.7-2.5-11.2-5.3-16.8-8.1-22.2-11.2-43.4-24.2-63.8-38.4-20.3-14.2-39.8-29.7-58.6-45.8l-7-6.1c-2.3-2-4.7-4-7-6.1l-13.7-12.5-3.4-3.1-3.3-3.2-6.7-6.5-6.7-6.5-3.3-3.2-3.3-3.3c-8.7-8.8-17.4-17.5-25.8-26.6l-12.7-13.5-12.5-13.7c-16.6-18.3-32.9-36.8-49.4-55.2-32.9-36.8-66.4-72.9-103.2-105.7-36.6-33-75.8-63-116.3-91.2l1.1-1.6,15.4,10.4c5.1,3.5,10.3,6.8,15.3,10.5,10,7.2,20.2,14.3,30,21.8l7.4,5.6c2.5,1.9,4.9,3.7,7.3,5.6l14.5,11.5,3.6,2.9,3.6,3,7.1,6,7.1,6c2.4,2,4.6,4.1,7,6.1,18.7,16.2,36.5,33.4,53.9,51,17.4,17.6,34.2,35.7,50.8,54.1,33.1,36.6,65.7,73.7,100.6,108.4,17.5,17.3,35.3,34.3,54,50.3,18.6,16.1,37.8,31.4,57.9,45.5,20.1,14.1,41.1,27,63,38.1,5.5,2.7,10.9,5.5,16.6,8l8.4,3.8,8.5,3.5,4.2,1.8,4.3,1.7,8.6,3.3,8.7,3.1,4.3,1.5,4.4,1.4c23.3,7.7,47.2,13.7,71,20.5,23.8,6.7,47.5,14.7,69.8,25.9l2.1,1,2.1,1.1,4.1,2.2,4.1,2.2c1.4.7,2.7,1.6,4,2.4l8,4.8,7.8,5c5.2,3.3,10.4,6.7,15.5,10.1,5.2,3.4,10.3,6.8,15.4,10.3,20.5,13.8,40.8,27.9,60.9,42.2,40.3,28.5,80.4,57.3,120.2,86.6l-1.1,1.5h0Z"/>
        <path class="st0" d="M1104.6,69.7l30,21.3,29.8,21.5c19.8,14.4,39.7,28.8,59.3,43.4,19.7,14.7,39.3,29.4,58.6,44.6,4.8,3.9,9.7,7.6,14.4,11.5,2.4,2,4.8,3.9,7.1,5.9l7,6.1c2.3,2,4.6,4.1,6.8,6.2l6.8,6.2,13.4,12.6c17.8,16.9,35.3,34,53.2,50.7,17.9,16.7,35.9,33.3,54.4,49.3,18.5,16,37.4,31.5,57,46.1,19.6,14.6,39.8,28.3,60.8,40.6,21.2,12.2,42.8,23.6,64.8,34.4,22,10.8,44.3,20.9,66.6,31.1,22.3,10.2,44.5,20.7,66.3,32.2l8.1,4.3c2.7,1.4,5.4,2.9,8.1,4.4,5.3,3,10.7,6,16,9.1l15.9,9.4,15.6,9.8c41.4,26.4,82.2,53.6,122.7,81.1,40.5,27.6,80.9,55.5,120.9,83.8l-.9,1.2c-40.5-27.6-81.1-55-122-82.2-40.8-27.1-81.8-54.1-123.3-80l-15.6-9.6-15.8-9.2c-5.3-3-10.7-5.9-16-8.9-2.7-1.5-5.4-2.9-8.1-4.3l-8.1-4.3c-21.7-11.3-43.8-21.7-66.1-31.9-22.3-10.1-44.7-20.2-66.8-31-22.1-10.8-43.9-22.1-65.2-34.4-21.3-12.4-41.8-26.1-61.5-40.8-19.6-14.8-38.6-30.5-57.2-46.6-18.5-16.1-36.6-32.8-54.4-49.6-17.9-16.8-35.4-34-53.1-50.9l-13.3-12.7-6.7-6.3c-2.2-2.1-4.4-4.2-6.7-6.2l-6.8-6.1c-2.3-2-4.7-3.9-7-5.9-4.6-4-9.4-7.8-14.2-11.6-19.1-15.3-38.5-30.2-58-45.1-19.5-14.8-39.1-29.6-58.7-44.3l-59-43.9.9-1.2h0Z"/>
        <path class="st0" d="M1184,52l121.3,83.6,121.1,83.9c10.1,6.9,20.1,14.2,30,21.5,9.8,7.4,19.6,14.9,29.3,22.4,19.4,15.1,38.6,30.3,58.2,45.1,19.6,14.8,39.4,29.2,59.7,42.9s41.1,26.8,62.3,39c42.4,24.5,86.3,46.6,129.4,70.4,43.1,23.6,85.5,48.7,126,76.6l7.6,5.2,3.8,2.6,3.8,2.7,15,10.8,29.8,21.6c19.9,14.3,40,28.4,60.2,42.3,20.2,13.9,40.6,27.6,61.2,41,10.3,6.7,20.6,13.3,31,19.9,10.4,6.6,20.8,13,31.3,19.3l-.9,1.5c-21.2-12.4-42.1-25.3-62.8-38.6-20.7-13.2-41.2-26.7-61.6-40.5-20.3-13.8-40.5-27.8-60.6-42l-29.9-21.5-15-10.6-3.8-2.7-3.8-2.6-7.6-5.2-7.6-5.2-3.8-2.6-3.9-2.5-15.4-10c-2.6-1.7-5.2-3.3-7.8-4.9l-7.8-4.8-7.8-4.8c-2.6-1.6-5.3-3.1-7.9-4.7-21-12.7-42.4-24.7-63.9-36.5-43-23.6-86.9-45.6-129.6-70.2-42.7-24.5-83.2-52.6-122.4-82.4-19.6-14.9-38.8-30.2-58.1-45.3-9.7-7.6-19.4-15.1-29.2-22.4-9.8-7.3-19.7-14.6-29.8-21.6l-120.6-84.7-120.4-85,1-1.5h0Z"/>
        <path class="st0" d="M2258.9,673.5l-277.8-177.5c-38.4-24.5-78.9-49.1-135-83.1-35.8-21.7-76.4-46.3-127.4-77.6-94.9-58.1-149.3-96.8-188.9-125.1-16.3-11.6-30.5-21.7-44.4-31-52.4-35-221.7-141.6-223.4-142.7l1.6-2.5c1.7,1.1,171,107.7,223.4,142.8,14,9.3,28.1,19.4,44.5,31.1,39.7,28.2,93.9,66.9,188.8,124.9,51,31.2,91.6,55.9,127.4,77.6,56.1,34,96.6,58.6,135.1,83.1l277.8,177.5-1.6,2.5h0Z"/>
        <rect class="st0" x="1845.6" y="-261.7" width="3" height="1182.8" transform="translate(590.6 1723.2) rotate(-58.1)"/>
      </g>
    </g>
  </g>
</svg>