<?xml version="1.0" encoding="UTF-8"?>
<svg id="_Слой_2" data-name="Слой 2" xmlns="http://www.w3.org/2000/svg" viewBox="0 0 212.06 107.12">
  <defs>
    <style>
      .cls-1 {
        fill: #A6BDD7;
      }
    </style>
  </defs>
  <g id="OBJECTS">
    <path class="cls-1" d="M105.96,107.11l-.05-.03c-6.75-3.83-12.15-8.64-17.38-13.29-3.35-2.98-6.79-6.04-10.58-8.86-4.23-3.15-7.68-4.49-11.54-4.49-2.03,0-4.01.35-6.3.75-1.93.34-4.09.72-6.55.93-1.34.11-2.71.17-4.08.17-11.72,0-23.2-4.22-33.04-8.18l-.12.05.03-.12c-1.57-.6-3.2-1.27-4.82-1.93-3.57-1.46-7.26-2.98-10.92-4.34l-.61-.23.61-.23c2.93-1.09,5.88-2.11,8.38-2.96l.02-.06.12.03c1.13-.4,2.33-.8,3.51-1.2,1.51-.51,3.03-1.02,4.55-1.54l.02-.05.11.02c10.96-3.75,22.51-8.05,31.96-15.6,7.43-7.05,12.79-15.34,17.52-22.65,3.08-6.4,5.96-10.86,8.8-13.62,3.9-6.42,7.6-9.68,10.98-9.68.39,0,.79.04,1.18.13,2.28.52,4.53,2.24,6.87,5.27,3.52,2.96,6.77,8.48,9.91,16.86,1.15,1.86,2.26,3.97,3.37,6.45,2.02.74,4.11,1.55,6.21,2.35h.13s0,.05,0,.05c9.55,3.66,19.72,7.49,31.98,12.05l.1-.03-.02.09c10.03,3.7,37.62,13.88,37.62,13.88l3.09,1.14.11-.04v.1c8.03,2.95,16.22,5.98,24.32,9l.61.23-.61.23c-11.5,4.29-23.18,8.71-34.48,12.98l-.57.21c-16.71,6.31-35.64,13.46-54.11,20.25l-.03.09-.07.1-.1-.07c-5.32,1.9-10.66,3.85-15.97,5.77l-.05.02h-.1ZM99.15,102.04c2.36,1.76,4.62,3.25,6.9,4.55,2.52-.91,5.05-1.83,7.58-2.75-1.85-1.35-3.84-3.16-6.06-5.51-3.11,1.32-5.87,2.53-8.42,3.71ZM108.05,98.13c2.26,2.38,4.27,4.19,6.14,5.51,2.45-.89,4.9-1.79,7.36-2.69-2.5-1.71-4.79-3.52-6.98-5.51-1.9.76-3.98,1.62-6.51,2.69ZM91.37,95.65c2.09,1.84,4.58,3.98,7.33,6.06,2.55-1.18,5.34-2.41,8.51-3.75-2.14-2.3-4.28-4.84-6.28-7.26-3.43,1.31-6.56,2.93-9.56,4.95ZM115.07,95.24c2.22,2,4.52,3.8,7.03,5.5,2.6-.96,5.21-1.92,7.81-2.88-3.18-1.45-5.99-3.1-8.59-5.04-2.09.79-4.18,1.6-6.25,2.42ZM101.42,90.52c2,2.41,4.14,4.95,6.28,7.24,2.56-1.08,4.56-1.91,6.47-2.68-2.22-2.06-4.24-4.2-6.16-6.55-2.35.57-4.51,1.22-6.59,1.99ZM121.87,92.62c2.6,1.91,5.41,3.54,8.57,4.95l.11.05v.02c2.48-.92,4.97-1.85,7.46-2.78-3.83-1.45-7.05-2.94-9.85-4.57-2.1.76-4.2,1.53-6.29,2.32ZM82.78,88.14c2.17,1.81,4.27,3.67,6.07,5.28.71.63,1.42,1.26,2.13,1.89,3.02-2.04,6.17-3.68,9.61-5.01l-1.5-1.81c-2.44-2.97-4.96-6.03-7.57-8.92-2.07,1.74-4.25,3.97-6.55,6.33-.71.73-1.44,1.48-2.21,2.25ZM108.54,88.4c1.92,2.33,3.93,4.45,6.13,6.47,2.05-.82,4.12-1.61,6.18-2.4-2.11-1.62-4-3.38-5.75-5.35-2.44.4-4.59.82-6.57,1.28ZM128.72,90.09c2.75,1.56,5.96,3.02,9.8,4.45l.11.04-.02.06c2.5-.93,5-1.87,7.49-2.8-1.45-.54-2.88-1.04-4.26-1.54-2.38-.85-4.58-1.63-6.72-2.49-2.14.75-4.27,1.5-6.39,2.27ZM115.69,87.04c1.75,1.94,3.62,3.65,5.71,5.24,2.06-.78,4.14-1.55,6.21-2.3-2-1.21-3.78-2.49-5.43-3.91l-1.42.21c-1.71.25-3.4.5-5.08.76ZM135.83,87.56c2.02.8,4.14,1.55,6.18,2.28,1.5.53,3.05,1.08,4.62,1.67l.11.04-.02.06c2.49-.93,4.98-1.87,7.47-2.8-2.29-.84-4.65-1.63-6.94-2.4-1.35-.45-2.7-.91-4.06-1.37-2.46.83-4.91,1.67-7.36,2.53ZM91.91,79.25c2.6,2.89,5.13,5.96,7.57,8.93l1.6,1.94c2.08-.78,4.24-1.44,6.58-2.01-2.75-3.42-5.42-7.34-8.61-12.68-2.47.64-4.68,1.82-7.14,3.82ZM122.77,85.98c1.64,1.38,3.41,2.62,5.41,3.79,2.08-.76,4.17-1.5,6.27-2.23-2.05-.85-3.82-1.69-5.4-2.57-2.24.41-4.41.74-6.27,1.01ZM143.95,84.78c1.15.39,2.3.78,3.45,1.16,2.44.82,4.95,1.65,7.33,2.54l.11.04v.04s7.41-2.8,7.41-2.8c-3.14-1.15-6.61-2.21-9.97-3.24l-.83-.26c-2.5.83-5,1.66-7.5,2.5ZM99.56,75.31c3.2,5.35,5.87,9.26,8.64,12.67,1.96-.46,4.11-.89,6.54-1.29-2.68-3.09-5.15-6.8-7.76-11.65-1.11-.12-2.16-.17-3.14-.17-1.56,0-2.96.14-4.28.44ZM74.22,81.96c1.29.67,2.61,1.52,4.03,2.57,1.26.94,2.54,1.95,4.16,3.3.73-.74,1.44-1.46,2.11-2.15l.13-.13c2.3-2.36,4.47-4.59,6.57-6.35-3.51-3.86-6.5-6.65-9.41-8.77-1.61,2.28-3.09,4.62-4.41,6.69-1.06,1.67-2.16,3.4-3.16,4.84ZM129.81,84.82c1.59.86,3.35,1.67,5.37,2.48,2.36-.86,4.81-1.7,7.26-2.53-1.76-.62-3.33-1.2-4.79-1.78-2.44.7-5.01,1.3-7.83,1.83ZM107.57,75.11c2.6,4.79,5.06,8.45,7.73,11.49,1.78-.29,3.58-.55,5.4-.81l1-.15c-2.83-2.53-5.34-5.59-7.67-9.34-1.13-.26-2.35-.53-3.65-.77-.9-.17-1.8-.3-2.8-.42ZM114.71,76.52c2.32,3.69,4.73,6.57,7.56,9.04,1.93-.28,4-.6,6.11-.97-2.84-1.65-5.25-3.56-7.37-5.82-.32-.11-.68-.26-1.07-.42-1.23-.5-2.89-1.19-5.22-1.83ZM152.43,82.06c3.7,1.13,7.2,2.2,10.4,3.4l.11.04h0s7.37-2.77,7.37-2.77c-3.34-1.23-6.94-2.36-10.07-3.33-2.65.86-5.31,1.74-7.98,2.62l.17.05ZM138.4,82.76c1.44.56,2.99,1.13,4.83,1.77,2.42-.84,4.92-1.68,7.41-2.51-1.77-.54-3.54-1.1-5.3-1.68l-2.77,1.03c-1.28.48-2.61.92-4.17,1.38ZM122.09,79.17c2.05,2.05,4.37,3.79,7.07,5.3,2.78-.53,5.34-1.11,7.75-1.78-2.63-1.08-4.9-2.18-6.94-3.35-1.55.31-2.91.46-4.07.46-1.6,0-2.79-.28-3.8-.62ZM130.75,79.21c2.04,1.14,4.32,2.21,6.96,3.27,1.69-.51,3.25-1.03,4.7-1.56l2.2-.82c-2.66-.89-4.95-1.75-6.99-2.61l-.22.06c-.98.28-1.97.56-2.95.81-1.38.35-2.59.63-3.7.85ZM161.04,79.13c3.09.96,6.61,2.08,9.89,3.3l.08.03,7.35-2.78c-2.59-.95-5.62-1.95-9.48-3.12l-7.85,2.56ZM42.64,81.35c2.27.29,4.56.44,6.8.44h.28c1.99-3.3,3.92-6.84,5.89-10.79-.74.5-1.41.98-2.03,1.43-1.98,1.42-3.69,2.65-5.84,3.31-1.61,1.97-3.29,3.82-5.1,5.62ZM65.16,66.19c-1.03.27-2.05.63-3.04,1.09-2.01.93-3.83,1.94-5.72,3.19-2,4.11-4.02,7.83-6.11,11.32,1.23-.02,2.26-.07,3.22-.15,1.1-.09,2.24-.23,3.49-.42,2.77-4.84,5.51-9.89,8.15-15.02ZM146.08,80.07c1.79.58,3.6,1.15,5.4,1.7,2.61-.88,5.28-1.76,7.94-2.63l-1.24-.38c-1.54-.48-3.11-.96-4.68-1.46l-7.43,2.77ZM66.43,79.94c2.54,0,4.88.57,7.35,1.79,1.01-1.43,2.12-3.19,3.19-4.88,1.31-2.07,2.8-4.42,4.42-6.71-3.05-2.15-6.05-3.55-8.93-4.14-.98,2.06-1.89,4.06-2.74,5.91-1.42,3.1-2.77,6.04-3.86,8.05h.02c.19-.01.37-.02.56-.02ZM33.85,79.61c2.87.75,5.55,1.29,8.19,1.66,1.7-1.67,3.31-3.41,4.91-5.31-.94.22-1.95.33-3.05.33-.95,0-1.97-.08-3.1-.24-2.09,1.35-4.42,2.55-6.94,3.56ZM65.79,66.03c-2.65,5.15-5.39,10.22-8.16,15.08.84-.13,1.64-.27,2.39-.4,1.96-.35,3.59-.62,5.25-.72,1.11-2,2.51-5.05,3.99-8.28.83-1.82,1.73-3.78,2.69-5.8-.94-.16-1.89-.25-2.81-.25-1.12,0-2.25.12-3.36.37ZM138.37,77.28c2.02.83,4.26,1.65,7.01,2.56l4.09-1.55,3.29-1.23c-2.46-.78-4.63-1.51-6.63-2.23-2.74.94-5.28,1.74-7.75,2.46ZM169.7,76.3c3.87,1.18,6.76,2.14,9.33,3.1h.03s7.36-2.77,7.36-2.77c-2.78-1.04-5.6-2.06-8.42-3.08-2.78.92-5.54,1.83-8.31,2.74ZM25.13,76.9c2.82,1,5.43,1.82,7.96,2.5,2.5-.99,4.8-2.12,6.95-3.47-.95-.16-1.93-.36-2.99-.61-1.32-.32-2.74-.71-4.33-1.21-1.3.49-2.68,1-4.16,1.53-1.08.4-2.23.82-3.44,1.26ZM113.26,65.9c1.67,3.43,3.43,6.44,5.37,9.18.82,1.16,1.7,2.24,2.7,3.31,1.44.55,2.73.91,4.56.91.99,0,2.12-.11,3.45-.32-1.88-1.13-3.52-2.3-5.01-3.59-.74-.64-1.5-1.38-2.38-2.32-3.39-1.51-6.09-4.38-8.69-7.16ZM154.25,77.02c1.36.43,2.72.85,4.08,1.27l1.94.6,1.22-.42,6.58-2.14c-1.89-.57-3.82-1.13-5.79-1.71l-.88-.26-7.15,2.67ZM82.07,70.02c3,2.19,6,4.99,9.51,8.86,2.49-2.03,4.72-3.24,7.21-3.91-1.32-2.21-2.64-4.51-4.01-6.89l-.32-.56c-.68-1.19-1.37-2.48-2.1-3.84-.51-.96-1.04-1.95-1.59-2.94-2.85,2.04-5.62,5-8.69,9.29ZM123.05,73.52c.56.57,1.09,1.06,1.59,1.5,1.61,1.38,3.4,2.64,5.48,3.85,1.15-.24,2.54-.55,4.2-.98.77-.2,1.55-.42,2.32-.63l.25-.07c-2.38-1.04-4.38-2.07-6.12-3.16-1.05.14-2.11.21-3.08.21-.47,0-.94-.01-1.39-.05-1.11-.08-2.18-.3-3.25-.67ZM107.01,60.08c1.26,3.14,2.54,6.28,3.82,9.4,1.18,2.4,2.34,4.52,3.54,6.47,2.58.64,4.41,1.4,5.76,1.94l.14.06c-.71-.82-1.4-1.69-2.04-2.59-2.22-3.13-4.21-6.61-6.07-10.65-1.55-1.63-3.26-3.33-5.15-4.63ZM131.6,73.95c1.77,1.06,3.77,2.06,6.08,3.04,2.42-.71,4.96-1.51,7.7-2.43-2.09-.76-4.08-1.56-5.93-2.36-2.85.84-5.49,1.43-7.85,1.75ZM146.84,74.58c1.93.68,4.01,1.37,6.69,2.21l3.35-1.28,3.73-1.39c-2.29-.67-4.58-1.35-6.86-2.05-2.37.9-4.69,1.74-6.91,2.51ZM17.17,73.87c2.79,1.12,5.11,2.01,7.28,2.79,1.28-.51,2.57-.98,3.78-1.42l.17-.06c1.26-.46,2.45-.89,3.57-1.31-2.12-.69-4.38-1.52-7.09-2.6l-1.16.38c-2.24.73-4.54,1.49-6.56,2.22ZM178.76,73.32c2.8,1.01,5.6,2.03,8.37,3.06l7.37-2.78-7.86-2.94c-2.62.9-5.24,1.78-7.87,2.65ZM162.41,74.14c2.22.65,4.4,1.29,6.51,1.93,2.73-.91,5.53-1.83,8.34-2.77-2.24-.8-4.46-1.59-6.67-2.38l-8.43,3.15.25.07ZM41.43,75.63c.87.1,1.67.15,2.43.15,1.35,0,2.56-.16,3.68-.51,2.55-3.12,4.87-6.44,7-10.08-2.49,2.83-4.88,4.62-7.44,5.6-1.71,1.82-3.58,3.41-5.67,4.82ZM107.29,74.59c1.14.13,2.15.27,3.17.46,1.13.21,2.19.43,3.22.69-1.13-1.87-2.21-3.85-3.3-6.06-1.38-3.36-2.75-6.72-4.1-10.1-1.77-1.07-3.57-1.71-5.47-1.89-.31-.03-.61-.04-.92-.05l.58,1.67c1.03,2.94,1.84,5.25,2.46,6.57,1.73,3.64,3.07,6.33,4.35,8.71ZM33.47,73.82c1.36.42,2.57.75,3.7,1.02,1.26.3,2.43.53,3.56.69,1.91-1.28,3.68-2.72,5.35-4.38-.25.08-.51.15-.78.21-.39.09-.84.13-1.35.13-1.07,0-2.43-.2-4.06-.59-1.74.97-3.68,1.85-6.43,2.92ZM63.53,53.49c-1.62,1.84-3.09,3.88-4.51,5.86-.94,1.31-1.79,2.48-2.68,3.64-2.39,4.39-5,8.32-7.96,12,1.72-.68,3.21-1.75,4.91-2.97.85-.61,1.76-1.26,2.78-1.93,2.73-5.58,5.18-11.25,7.46-16.6ZM91.17,60.45c.56,1.01,1.1,2.02,1.62,3,.73,1.36,1.41,2.65,2.09,3.83l.32.56c1.4,2.43,2.74,4.77,4.08,7.02,1.39-.32,2.86-.48,4.51-.48.91,0,1.88.05,2.9.15-1.24-2.34-2.55-4.95-4.2-8.44-.63-1.33-1.45-3.66-2.48-6.61l-.65-1.85c-2.76.04-5.52.99-8.2,2.82ZM140.14,72c1.89.8,3.91,1.59,6,2.33,2.19-.78,4.52-1.62,6.85-2.5-2.31-.72-4.41-1.4-6.39-2.08-2.38.91-4.5,1.64-6.46,2.25ZM154.5,71.79c2.3.7,4.62,1.39,6.92,2.06l1.1-.44,7.35-2.75s-4.56-1.62-6.61-2.35c-3.2,1.3-6.07,2.44-8.77,3.47ZM113.52,58.24c2.57,6.13,5.44,10.87,8.76,14.45,1.31.57,2.66.92,4.07,1.01.47.03.94.05,1.43.05.75,0,1.56-.04,2.39-.11-3.61-2.35-6.55-5.06-8.98-8.28-1-.41-1.98-.95-2.87-1.58-1.8-1.29-3.41-3.43-4.8-5.54ZM11.72,71.66c1.6.66,3.2,1.31,4.81,1.96,2-.78,4.45-1.58,7.03-2.43l.62-.2c-2.03-.81-4.05-1.66-6.05-2.5l-1.3-.55c-2.35.8-5.05,1.74-7.63,2.69l2.52,1.03ZM25.61,71.03c2.65,1.04,4.99,1.88,7.14,2.57,2.76-1.08,4.74-1.94,6.47-2.87-1.83-.48-3.96-1.19-6.5-2.16-2.39.88-4.82,1.7-7.11,2.46ZM122.11,65.74c2.43,3.05,5.32,5.61,8.83,7.82,2.27-.27,4.92-.83,7.82-1.66-3.56-1.59-6.63-3.26-9.36-5.11-.11.02-.3.03-.48.03-2.5,0-4.79-.36-6.81-1.08ZM195.23,73.36l7.34-2.79-7.54-2.82c-2.54.9-5.1,1.79-7.67,2.67l7.87,2.94ZM171.3,70.65c2.23.79,4.49,1.6,6.75,2.41,2.57-.88,5.21-1.77,7.85-2.67l-6.96-2.6-7.64,2.85ZM105.98,46.35c1.7,5.61,3.81,12.08,6.6,18.12l.96,1.02c2.3,2.46,4.68,5.01,7.53,6.6-3.43-3.99-6.38-9.28-9.02-16.15-.46-.75-.94-1.54-1.42-2.34-1.4-2.34-2.97-4.97-4.66-7.25ZM130.18,66.79c2.69,1.76,5.74,3.38,9.3,4.92,1.92-.6,4.04-1.32,6.4-2.21-3.46-1.21-6.47-2.39-9.21-3.62-2.32.51-4.5.82-6.49.91ZM147.31,69.48c1.98.67,4.1,1.36,6.46,2.08,2.67-1.04,5.58-2.19,8.8-3.5-2.13-.76-4.26-1.53-6.39-2.31-3.29,1.47-6.2,2.69-8.87,3.72ZM40.53,70.54c1.37.31,2.52.47,3.44.47.46,0,.88-.04,1.22-.12.52-.12,1.07-.29,1.68-.52,4.13-4.38,6.96-9.74,9.17-14.59-.82,1.19-1.54,2.08-2.2,2.75-1.5,1.51-2.89,2.69-4.27,3.63-2.76,3.74-5.57,6.34-9.04,8.38ZM18.32,68.04c2.19.92,4.4,1.85,6.62,2.73,2.6-.88,4.86-1.64,7.09-2.46-2.76-1.07-5.51-2.26-7.38-3.08-2.15.76-4.31,1.51-6.45,2.24l-.67.23.79.33ZM170.63,70.41l3.57-1.36,4.05-1.51-6.87-2.56-1.44.59c-1.99.82-3.99,1.64-6,2.47,1.88.67,6.68,2.38,6.68,2.38ZM33.42,68.31c2.49.93,4.67,1.63,6.49,2.08,3.28-1.88,5.88-4.15,8.53-7.53-2.05,1.19-4,1.74-6.09,1.74-.19,0-.39,0-.58-.01-2.24,1.23-4.97,2.45-8.34,3.72ZM1.4,67.54c2.42.91,4.87,1.9,7.17,2.84,2.47-.96,5.19-1.9,7.58-2.72-2.28-.95-4.69-1.95-7.04-2.83-2.17.73-4.97,1.7-7.71,2.71ZM203.31,70.32c2.4-.93,4.88-1.86,7.35-2.78-2.46-.92-4.94-1.84-7.41-2.76-2.48.92-4.99,1.82-7.5,2.72l7.57,2.83ZM186.68,70.16c2.5-.88,5.08-1.77,7.64-2.68l-7.26-2.71-7.4,2.77,7.03,2.62ZM66.03,39.48c-2.02,2.96-3.91,6.21-5.58,9.1-.95,1.64-1.85,3.18-2.71,4.58-2.5,5.79-5.42,11.82-9.82,16.77,3.4-1.62,5.96-4.54,8.02-7.22,3.76-6.92,6.58-14.19,9.57-21.88l.52-1.35ZM72.67,65.55c2.91.62,5.94,2.03,9,4.2,3.12-4.37,5.94-7.37,8.85-9.44-2.26-4.06-5.06-8.52-8.73-11.04-3.7,5.23-6.97,11.76-9.12,16.29ZM74.28,47.24c-1.16.11-2.35.4-3.55.85-2.14.8-4.17,2.22-6.23,4.35-2.34,5.52-4.87,11.41-7.67,17.17,1.66-1.05,3.33-1.96,5.08-2.77,1.17-.54,2.36-.95,3.54-1.23,3.17-6.18,6.14-12.36,8.82-18.36ZM137.47,65.7c2.73,1.2,5.73,2.36,9.17,3.55,2.64-1.04,5.58-2.26,8.89-3.73-2.93-1.07-5.56-2.06-8.04-3.01-3.73,1.43-7.01,2.48-10.01,3.19ZM25.32,64.99c2.92,1.27,5.3,2.25,7.45,3.07,3.19-1.21,5.87-2.38,8.09-3.55-2.52-.3-5.12-1.35-7.79-2.49-2.27.94-4.81,1.91-7.75,2.96ZM156.82,65.47c2.16.79,4.32,1.56,6.47,2.33,2.11-.89,4.29-1.79,6.46-2.69l.95-.39-6.76-2.52c-2.3,1.07-4.69,2.18-7.13,3.27ZM9.84,64.58c2.35.9,4.78,1.9,7.05,2.85l.42-.18.72-.25c1.97-.68,3.97-1.36,5.96-2.06l-1.82-.8c-1.92-.85-3.74-1.65-4.87-2.08-1.5.51-3,1.01-4.49,1.51l-2.97,1ZM178.99,67.29l7.36-2.78-7.23-2.7c-2.37.95-4.73,1.92-7.08,2.89l6.94,2.59ZM195.07,67.24c2.45-.9,4.97-1.8,7.46-2.73l-7.42-2.75-7.36,2.75,7.32,2.73ZM122.83,60.63c1.89,2.06,4.14,3.98,6.69,5.71,1.92-.06,4.09-.32,6.4-.8-2.89-1.33-5.41-2.69-7.69-4.16-.16.03-.38.03-.59.03-1.82,0-3.4-.26-4.81-.79ZM115.22,53.18c1.61,4,3.53,8.12,6.32,11.83,2.05.84,4.48,1.29,7.18,1.31-2.76-1.93-5.05-3.96-6.98-6.19-2.79-1.4-4.73-4.03-6.52-6.96ZM74.84,47.19c-2.66,5.96-5.6,12.1-8.76,18.28,1.02-.2,2.06-.3,3.1-.3s2,.09,3,.28c2.17-4.55,5.46-11.16,9.21-16.46-1.91-1.22-3.87-1.81-5.99-1.81-.18,0-.37,0-.56.01ZM129.12,61.36c2.27,1.42,4.78,2.73,7.64,4.02,2.94-.68,6.25-1.71,10.04-3.14-2.63-1.01-5.21-2.04-7.67-3.04-2.43.78-4.58,1.34-6.57,1.71-1.22.23-2.35.38-3.44.45ZM148.16,62.24c2.67,1.02,5.36,2.02,8.04,3,2.37-1.09,4.77-2.21,7.1-3.29l-7.66-2.86c-2.9,1.28-5.28,2.29-7.48,3.15ZM18.01,61.82c1.13.46,2.7,1.15,4.35,1.88l2.34,1.03c2.96-1.09,5.46-2.03,7.73-2.96l-.75-.32c-1.76-.76-3.73-1.61-5.88-2.41-2.31.88-4.8,1.77-7.8,2.79ZM107.23,39.15c1.49,5.24,3.18,11.11,5.28,16.59,2.14,3.5,4,6.15,6.09,7.64.62.44,1.28.84,2.02,1.2-2.86-4.01-4.86-8.53-6.96-14.04l-.34-.58c-.84-1.46-1.7-2.94-2.68-4.52-1.23-1.98-2.34-4.15-3.41-6.29ZM171.42,64.46c2.27-.97,4.64-1.95,7.02-2.91l-7.26-2.71c-1.92.87-3.93,1.81-6,2.77l-.62.29,6.84,2.56ZM187.09,64.27l7.32-2.76-7.44-2.75c-2.12.79-4.41,1.68-7.17,2.79l7.29,2.72ZM56.44,48.65c-.94,1.43-1.79,2.58-2.61,3.58-2.65,4.46-5.41,7.75-8.44,10.05-.8.6-1.72,1.21-2.75,1.82,2.26-.06,4.38-.82,6.67-2.37,1.3-1.79,2.67-3.92,4.14-6.49.79-1.37,1.7-3.37,2.99-6.59ZM33.7,61.77c2.73,1.15,5.39,2.18,8.01,2.32,1.25-.71,2.41-1.46,3.39-2.19,2.47-1.87,4.75-4.41,6.95-7.73-2.66,2.52-5.48,3.66-9.02,3.66-.44,0-.9-.02-1.37-.05-1.43.92-2.88,1.72-4.45,2.45-1.04.49-2.19,1-3.51,1.55ZM99.29,40.3c2.38,6.29,4.88,12.68,7.42,19.02,1.82,1.12,3.46,2.66,4.86,4.08-2.69-6.08-4.76-12.57-6.43-18.16-1.95-2.4-3.87-4.03-5.85-4.94ZM139.85,58.96c2.54,1.04,5.12,2.06,7.67,3.03,2.15-.86,4.55-1.87,7.46-3.15l-7.47-2.79c-2.91,1.21-5.35,2.14-7.66,2.9ZM163.98,61.69l1-.51c1.92-.9,3.78-1.76,5.55-2.57l-7.53-2.81c-.95.42-1.92.86-2.9,1.3-1.27.57-2.54,1.14-3.82,1.72l7.69,2.87ZM26.5,58.77c2,.76,3.87,1.57,5.39,2.22l1.23.53c1.42-.63,2.72-1.2,3.89-1.75,1.33-.62,2.59-1.31,3.85-2.08-2.13-.25-4.52-.86-7.28-1.85-2.23,1.01-4.55,1.97-7.07,2.93ZM179.16,61.3c2.6-1.08,4.96-2,7.11-2.81l-7.62-2.81c-1.8.67-3.98,1.59-6.84,2.88l7.34,2.74ZM122.12,55.61c1.38,1.57,2.8,2.88,4.31,3.97.64.46,1.31.91,1.98,1.35,1.22-.06,2.57-.22,4.05-.5,1.8-.34,3.75-.84,5.95-1.52-1.38-.57-2.76-1.15-4.13-1.74-.65-.28-1.27-.58-1.89-.88-1.83.54-3.46.82-4.77.82-.48,0-.92-.04-1.33-.11-1.45-.25-2.85-.72-4.17-1.39ZM116.89,51.52c.61,1.32,1.19,2.45,1.76,3.46.95,1.65,2.07,3.25,3.34,4.74,1.53.77,3.34,1.17,5.5,1.19-.46-.31-.91-.62-1.35-.93-1.87-1.36-3.6-3.01-5.26-5.07-1.4-.86-2.72-1.98-4-3.39ZM64.03,35.88c-.51.97-1.03,1.94-1.52,2.75-.65,1.08-1.27,2.13-1.87,3.13l-.14.23c-.94,1.59-1.83,3.08-2.68,4.47-1.34,3.44-2.75,6.93-3.96,9.02-1.16,2.03-2.27,3.79-3.38,5.38.97-.75,1.95-1.64,2.99-2.68,1.06-1.06,2.24-2.69,3.82-5.26.84-1.96,1.69-4,2.55-6.1l.06-.16c.69-1.68,1.41-3.41,2.16-5.18.1-.23.33-.91.68-1.93.43-1.27.86-2.48,1.27-3.66ZM73.48,31.13c-2.03,1.5-4.09,3.69-6.28,6.7l-1.23,3.17c-2.6,6.71-5.07,13.08-8.17,19.21.28-.38.55-.76.82-1.14,1.71-2.38,3.48-4.85,5.5-6.94l.12-.31.48-1.13c2.57-6.05,5.47-12.9,8.75-19.55ZM82.09,48.85c3.73,2.57,6.56,7.07,8.84,11.17,2.7-1.83,5.48-2.8,8.27-2.87-1.95-5.54-4.32-11.88-7.13-17.14-3.21,1.14-6.56,4.11-9.98,8.84ZM111.39,43.09c.45,1.2.89,2.37,1.31,3.51.47,1.28.94,2.52,1.4,3.74,2.34,4.04,4.12,6.9,6.71,8.67-1-1.26-1.85-2.5-2.59-3.79-.83-1.45-1.65-3.11-2.5-5.08-1.5-1.89-2.9-4.17-4.33-7.05ZM99.72,57.14c.37,0,.75.02,1.14.06,1.78.17,3.47.71,5.14,1.66-2.53-6.33-5-12.68-7.35-18.88-1.01-.35-2.13-.56-3.26-.56-.69,0-1.4.08-2.12.23-.25.05-.49.12-.73.19,2.82,5.3,5.12,11.44,7.18,17.29ZM133.13,56.11c.44.21.89.42,1.35.61,1.56.67,3.13,1.33,4.71,1.97,2.23-.75,4.76-1.69,7.65-2.88l-4.44-1.66c-.68-.25-1.35-.52-2.03-.79-2.8,1.23-5.17,2.13-7.24,2.75ZM155.67,58.58c1.38-.65,2.82-1.3,4.23-1.93.83-.37,1.64-.74,2.45-1.1l-7.29-2.72-2,.86c-1.62.7-3.25,1.41-4.89,2.09l7.49,2.8ZM171.21,58.33c2.74-1.28,4.92-2.21,6.75-2.91l-7.49-2.77c-2.21.83-4.67,1.9-6.82,2.85l7.57,2.83ZM42.36,57.31c.21,0,.41.01.61.01,4.19,0,7.33-1.62,10.49-5.43,2.33-3.93,4.34-8.37,6.29-12.65.47-1.03.94-2.06,1.41-3.08-2.34,3.62-4.54,6.4-6.87,8.67-3.07,4.32-6.53,8.84-11.93,12.49ZM34.22,55.54c2.81.98,5.22,1.54,7.37,1.71,4.56-2.98,7.75-6.53,10.98-10.89-3.76,3.18-8.07,5.34-13.11,6.59h-.03c-1.64.88-3.34,1.73-5.21,2.58ZM116.01,46.5c1.86,3.4,3.48,5.91,5.23,8.07,1.58.96,3.32,1.63,5.14,1.95.38.07.81.1,1.27.1,1.14,0,2.54-.21,4.15-.63-2.93-1.52-5.76-3.46-8.66-5.93-1.7-.31-3.31-.94-4.85-1.89-.78-.48-1.55-1.04-2.29-1.66ZM124.12,50.23c2.8,2.32,5.56,4.14,8.42,5.58,1.97-.59,4.35-1.47,7.2-2.71-2.43-1-4.98-2.15-8.01-3.63-2,.59-3.88.88-5.65.88-.66,0-1.32-.04-1.95-.12ZM141,53.08c.52.21,1.05.42,1.57.61l4.98,1.86c1.72-.75,3.53-1.54,5.32-2.31l1.53-.66-3.89-1.45c-.78-.29-1.56-.59-2.34-.89l-.6-.23c-2.21,1.06-4.37,2.1-6.57,3.08ZM163.04,55.28c2.01-.94,4.45-2,6.74-2.88l-7.19-2.66c-2.36.88-4.69,1.86-6.88,2.8l7.32,2.74ZM114.06,44.64c.8,2.13,1.46,3.77,2.1,5.26,1.19,1.5,2.43,2.74,3.75,3.74-1.62-2.17-3.18-4.73-4.99-8.15-.29-.27-.58-.56-.85-.85ZM102.85,35.75c.42,1.4.83,2.8,1.23,4.19.5,1.7,1,3.4,1.51,5.11,2,2.48,3.77,5.44,5.48,8.3l.1.16c-1.76-4.95-3.23-10.09-4.54-14.68l-.53-1.85c-1.14-.46-2.2-.86-3.25-1.24ZM132.47,49.29c2.91,1.41,5.51,2.57,7.94,3.55,2.22-1.01,4.52-2.12,6.53-3.08-2.39-.92-4.93-1.93-7.76-3.08-2.13.95-4.41,1.91-6.71,2.61ZM148.62,49.88c.69.27,1.38.53,2.06.79l4.42,1.65c1.98-.89,4.4-1.92,6.8-2.83l-7.3-2.7c-1.58.59-3.82,1.67-6.42,2.92l.44.17ZM48.26,47.36c-2.13,1.6-4.46,3.13-6.93,4.55,4.89-1.51,9.03-3.95,12.63-7.44.59-.83,1.2-1.7,1.81-2.58.84-1.2,1.79-2.55,2.8-3.95-.45.43-.89.87-1.35,1.31l-.31.36-.03-.03-1.12,1.11c-.67.66-1.35,1.34-2.04,2.02-1.25,1.22-2.62,2.43-4.09,3.61-.38.36-.76.72-1.16,1.08l-.09.08-.11-.12ZM79.82,28.73c-.17,0-.35,0-.52.02-1.65.12-3.34.74-5.02,1.83-3.41,6.87-6.43,14-9.1,20.29l-.15.35c1.81-1.71,3.63-2.88,5.53-3.6,1.35-.51,2.68-.81,3.95-.91.71-1.59,1.4-3.18,2.07-4.75l6.74-12.33c-.73-.37-1.48-.63-2.23-.77l-.05.03-.11.03-.11-.09c-.34-.06-.68-.09-1.01-.09ZM69.96,29.64c-1.3.57-2.55,1.24-3.8,2.04l-.05.14-.36.7c-1.08,2.95-1.94,5.46-2.5,7.12-.36,1.07-.6,1.77-.71,2.03-.76,1.8-1.49,3.57-2.2,5.28-.41,1-.81,1.97-1.2,2.91.29-.5.59-1.01.89-1.53,2.01-3.45,4.28-7.36,6.76-10.76,1.13-2.9,2.18-5.51,3.18-7.92ZM115.01,41.47c2.67,2.77,5.37,5.58,8.4,8.16.83.14,1.75.22,2.69.22,1.56,0,3.2-.23,5-.69-2.62-1.29-5.17-2.6-7.98-4.05l-2.07-1.07c-2.15-.45-4.22-1.49-6.29-3.18-.2-.1-.41-.2-.62-.3l.87.9ZM139.8,46.41c2.82,1.14,5.37,2.15,7.79,3.08v-.04s.14-.06.14-.06c2.34-1.13,4.55-2.2,6.17-2.85-2.57-.95-5.14-1.91-7.71-2.87-1.81.68-3.64,1.51-5.42,2.31l-.97.43ZM113.15,41c.71,1.41,1.43,2.83,2.18,4.23,1.04.99,2.11,1.82,3.23,2.51,1.22.75,2.48,1.3,3.83,1.65-2.75-2.42-5.26-5.02-7.68-7.53-.62-.65-1.24-1.28-1.86-1.92l-.31-.14.6,1.19ZM123.34,44.68c3,1.55,5.71,2.95,8.51,4.31,2.28-.68,4.65-1.67,6.7-2.57-2.36-.96-4.76-1.94-7.21-2.95l-.78-.32c-2.61.81-4.76,1.18-6.7,1.18-.44,0-.87-.02-1.29-.06l.78.4ZM59.03,42.01c-1.06,2.31-2.16,4.63-3.33,6.86.53-.78,1.09-1.65,1.7-2.65.49-1.27,1.02-2.63,1.56-4.04.02-.06.04-.12.07-.18ZM75.42,46.69c2.19,0,4.29.64,6.26,1.9,3.51-4.85,6.83-7.8,10.15-9.01-1.7-3.12-3.43-5.59-5.16-7.36h-.12s-.06-.1-.06-.1v-.13c-.87-.83-1.81-1.56-2.75-2.1l-6.73,12.31c-.63,1.49-1.29,3-1.97,4.51.12,0,.24,0,.36,0ZM110.26,39.49c1.61,3.67,3.09,6.44,4.67,8.74-.54-1.34-1.12-2.83-1.78-4.61-1.01-1.19-1.97-2.56-2.9-4.13ZM107.06,37.72c1.25,2.53,2.55,5.14,3.99,7.46.56.9,1.08,1.77,1.57,2.61l-.38-1.01c-.52-1.4-1.06-2.86-1.63-4.34-.36-.93-.76-2.14-1.32-3.92l-.11-.26c-.74-.29-1.54-.63-2.34-.96l.21.43ZM131.53,43.02c2.62,1.08,5.17,2.12,7.69,3.15l1.16-.56.19-.08c1.75-.79,3.34-1.49,4.94-2.12-2.51-.93-5.02-1.87-7.54-2.81-2.34.88-4.56,1.7-6.63,2.35l.18.08ZM97.2,34.72c.62,1.66,1.23,3.32,1.86,4.98,1.91.72,3.81,2.17,5.73,4.37-.39-1.33-.78-2.65-1.17-3.97-.45-1.53-.89-3.04-1.34-4.55-1.84-.64-3.65-1.2-5.39-1.65l.31.82ZM113.6,43.41c.17.2.35.41.54.61-.38-.73-.75-1.46-1.12-2.2.19.53.39,1.06.58,1.58ZM111.01,36.36c1.37,1.67,2.67,3,3.96,4.08,2.26,1.1,4.47,2.23,6.33,3.19.52.1,1.07.17,1.62.2.28.02.57.03.86.03,1.75,0,3.63-.31,6.05-.99-2.95-1.21-5.92-2.43-8.89-3.62h-.19c-3.79,0-6.88-1.05-9.94-3.42l.2.53ZM65.36,32.2c-.9.62-1.83,1.33-2.83,2.15-1.11,2.78-2.15,5.49-3.11,8.01l-.57,1.48c.4-.68.82-1.38,1.24-2.09l.15-.03-.1-.06c.62-1.05,1.27-2.15,1.96-3.28.87-1.45,1.84-3.36,2.86-5.37l.41-.8ZM122.13,39.19c2.85,1.15,5.68,2.31,8.5,3.47,2.01-.63,4.37-1.48,6.63-2.33-2.39-.9-4.79-1.8-7.18-2.7-3,.9-5.61,1.41-7.96,1.55ZM110.45,38.84c.69,1.19,1.41,2.3,2.16,3.3l-1.03-2.82c-.35-.13-.73-.3-1.13-.48ZM60.53,36.09c-1.47,1.94-2.81,3.85-4.1,5.7,1.45-1.7,2.88-3.65,4.33-5.9-.07.07-.15.13-.22.2ZM65.34,26.46c-3.27,5-6.82,10.18-11.07,15.01.33-.33,2.59-2.57,2.59-2.57,1.4-1.68,3.54-4.9,5.8-8.31.8-1.21,1.65-2.49,2.53-3.79.05-.11.1-.23.15-.34ZM111.63,38.03c.5.48,1.02,1.01,1.54,1.54l.25.11c-.63-.6-1.27-1.26-1.91-1.99l.12.34ZM95.39,38.93c1.03,0,2.05.17,3.04.5-.6-1.6-1.2-3.2-1.79-4.8l-.33-.88c-3.01-.75-6-1.24-8.89-1.45,1.63,1.78,3.27,4.17,4.87,7.11.29-.09.57-.17.86-.23.75-.16,1.5-.25,2.23-.25ZM110.38,34.67c3.23,1.15,6.75,2.51,10.69,4.09,2.32-.04,5.04-.5,8.25-1.42-2.25-.85-6.75-2.55-6.75-2.55-1.31.11-2.57.16-3.74.16-3.33,0-6.23-.44-8.85-1.35.14.35.27.71.41,1.06ZM109.21,36.53c.27.54.56,1.08.85,1.62.41.16.85.36,1.3.57l-.17-.47c-.67-.65-1.36-1.31-2.06-1.96l.07.25ZM111.09,35.41c2.65,2.04,5.31,3.07,8.48,3.28-3.03-1.21-5.81-2.28-8.48-3.28ZM105.58,33.41c.31,1.04.61,2.09.92,3.17.81.36,1.62.71,2.44,1.06-.35-.83-.68-1.66-1.01-2.48-.59-.51-1.25-1.06-1.92-1.6l-.42-.14ZM108.85,35.35c.54.49,1.08,1,1.62,1.52-.26-.5-.53-.99-.8-1.48-.11-.16-.22-.35-.34-.54l-.11-.18-.32-.09-.33-.12.27.88ZM63.11,30.82c-1.46,2.2-2.83,4.26-3.99,5.92.36-.33.71-.66,1.06-.99.52-.69,1.07-1.4,1.65-2.13.27-.34.97-1.2.97-1.2.41-1.01.83-2.03,1.27-3.06l-.96,1.45ZM102.68,35.17c1.06.37,2.12.77,3.16,1.18-.52-1.03-1.17-2.3-1.84-3.52-.54-.15-1.14-.35-1.74-.54l-.5-.16c.31,1.02.62,2.03.92,3.05ZM72.86,28.56c-.75.23-1.5.5-2.3.83-.82,2.04-1.7,4.22-2.69,6.74,2.1-2.67,4.09-4.61,6.09-5.92l.02-.08c.36-.71.71-1.43,1.08-2.14-.78.17-1.46.35-2.09.54l-.1.07v-.03ZM96.68,33.34c1.75.44,3.52.98,5.42,1.63-.3-1.01-.61-2.03-.92-3.04-2.13-.69-3.99-1.27-5.68-1.75.23.62,1.18,3.16,1.18,3.16ZM109.11,31.46c.21.52.43,1.05.64,1.58,2.62.93,5.61,1.42,9.08,1.42.84,0,1.72-.03,2.63-.09-2.49-.94-4.97-1.89-7.45-2.84-.61.04-1.24.05-1.86.05-1.03,0-2.05-.04-3.04-.13ZM109.47,34.04s.2.18.22.2c-.12-.31-.24-.61-.36-.92h-.15c-.06-.03-.12-.06-.18-.08.16.26.31.53.46.79ZM104.71,33.11c.2.37.4.75.6,1.13-.1-.34-.2-.69-.3-1.03l-.3-.1ZM107.54,34.21l-.07-.17-.19-.05c.08.07.17.14.25.22ZM108.72,34.01c-.13-.13-.27-.25-.4-.39l.08.27.32.12ZM105.29,32.44c.29.19.62.44.95.7l.44.15.58.21-.03-.07c-.18-.42-.36-.85-.53-1.28-.56-.27-1.17-.63-1.82-1.06.14.45.28.9.42,1.36ZM66.7,28.67c-.96,1.02-1.98,2.18-3.15,3.61-.16.33-.33.67-.49,1.01.88-.69,1.75-1.32,2.63-1.89.32-.9.66-1.82,1.01-2.73ZM107.7,33.28l-.14-.46-.07-.06.21.52ZM83.99,29.45c.99.58,1.99,1.37,2.96,2.35,2.92.15,6.02.63,9.16,1.39,0,0-.87-2.32-1.09-2.91l-.9-1.75c-1.19-.14-2.37-.3-3.54-.46-1.15-.16-2.28-.31-3.41-.44-.79.08-1.6.2-2.39.35l-.8,1.46ZM108.35,32.16l.25.41c.13.04.31.1.5.18-.18-.45-.36-.89-.54-1.34-.21-.02-.42-.05-.62-.07.14.28.28.55.42.82ZM104.37,32.5l.34.09.1.04c-.18-.12-.39-.26-.59-.4.05.09.1.18.15.28ZM103.66,32.22c-.12-.22-.25-.43-.38-.65-.71-.46-1.41-.87-2.08-1.24.13.4.25.81.38,1.21,0,0,1.59.52,2.08.68ZM103.1,30.35c.19.31.38.62.57.94.3.19.62.4.94.63-.13-.44-.27-.87-.4-1.3-.36-.06-.74-.16-1.11-.27ZM106.99,31.5c.08.08.16.17.25.26l-.17-.54-.2-.03.12.31ZM95.23,29.63c1.62.42,3.48.99,5.77,1.73-.15-.47-.3-.94-.45-1.41-.78-.36-1.64-.73-2.57-1.08-.98-.05-2.06-.14-3.28-.27l.53,1.03ZM106.17,31.3c-.08-.1-.17-.2-.25-.3-.1,0-.2-.02-.31-.04.19.12.38.23.56.34ZM108.89,30.95c1.03.09,2.1.14,3.2.14.25,0,.49,0,.75,0-1.55-.6-3.11-1.19-4.66-1.79.24.55.48,1.1.71,1.66ZM107.67,30.81c.22.03.44.06.67.09-.27-.64-.54-1.27-.82-1.89l-.19-.03-.53-.2.25.77c.21.43.41.86.62,1.28ZM106.82,30.69c-.12-.18-.25-.37-.38-.55l.21.52.16.03ZM101,29.74c.54.25,1.12.57,1.73.94-.12-.2-.25-.39-.37-.58-.44-.11-.91-.27-1.39-.45l.03.08ZM71.85,24.88c-1.49,1.82-3.15,3.86-4.84,5.71,1.06-.62,2.14-1.15,3.27-1.62l.14-.42.31-.75c.36-.86.76-1.85,1.21-3.04l-.09.12ZM104.61,30.24c.27.06.54.13.81.18-.41-.49-.83-1-1.25-1.53.15.45.29.89.44,1.35ZM104.62,28.66c.45.57.9,1.11,1.34,1.63-.1-.26-.36-.93-.36-.93l-.33-.79c-.21.03-.43.07-.64.1ZM68.94,23.14c-.44.59-.85,1.18-1.24,1.77l-1.1,1.95c-.59,1.06-1.18,2.11-1.76,3.14.85-.98,1.61-1.8,2.35-2.53.56-1.44,1.15-2.9,1.75-4.32ZM102.63,28.86c.49.39.94.72,1.36,1.03-.09-.29-.36-1.11-.36-1.11-.33.03-.66.06-1,.08ZM102.72,29.75c.11.02.24.06.37.09-.21-.16-.43-.33-.64-.49.09.13.18.27.27.4ZM75.68,27.85c-.33.62-.64,1.25-.96,1.88,1.51-.87,3.04-1.36,4.54-1.47.19-.01.37-.02.56-.02.4,0,.81.04,1.31.13,1.08-.32,2.21-.6,3.33-.81l.1-.18c-1.1-.08-2.1-.12-3.05-.12-1.19,0-2.3.06-3.38.19-.75.09-1.53.22-2.45.4ZM71.44,24.6c-.83.53-1.64,1.15-2.47,1.87-.58,1.02-1.15,2.05-1.69,3.07,1.38-1.56,2.76-3.23,4.16-4.95ZM100.79,29.06c.38.14.76.28,1.15.41-.13-.19-.26-.37-.39-.55-.27,0-.53.01-.79.02l.04.13ZM82.1,28.6c.48.15.96.35,1.45.61l.6-1.09c-.67.14-1.36.3-2.05.49ZM106.32,29.13c-.1-.22-.21-.45-.31-.67-.06,0-.11.02-.17.02.17.23.33.44.48.65ZM78.17,22.29c-1.91.14-3.67.63-5.37,1.5-.54,1.49-1.11,2.99-1.63,4.2l-.31.74c.68-.26,1.31-.49,1.93-.67,1.17-.82,2.36-1.64,3.52-2.41.58-1.1,1.2-2.23,1.85-3.36ZM67.52,27.82c-.1.27-.2.54-.31.81.19-.36.39-.72.6-1.09-.1.09-.19.19-.29.28ZM93.27,25.81c.6.24,1.24.53,1.87.82,1.37.63,2.71,1.25,4.06,1.8.32,0,.6.01.88.01-.17-.52-.35-1.04-.52-1.56-.64-.55-1.33-1.19-2.03-1.86-.66-.39-1.32-.68-1.99-.88-.73-.21-1.49-.31-2.27-.31-.31,0-.64.02-.96.05l.98,1.91ZM100.59,28.44c.2,0,.39,0,.59-.01-.09-.12-.18-.23-.27-.34-.2-.16-.4-.34-.61-.52.1.29.19.59.29.88ZM67.45,24.35c-.63.91-1.24,1.82-1.84,2.71-.2.46-.4.92-.61,1.38.78-1.41,1.53-2.66,2.27-3.79.06-.1.11-.2.17-.3ZM98.26,21.8c.52,1.37,1.04,2.82,1.59,4.42.46.42.95.95,1.43,1.54.19.16.83.68.83.68.4-.05.88-.09,1.36-.14l-.19-.58-.22-.28-.53-.68c-.88-1.15-1.74-2.55-2.39-3.64-.6-.48-1.24-.92-1.87-1.31ZM107.25,28.41c-.59-1.3-1.18-2.47-1.76-3.56.37,1.04.73,2.14,1.12,3.31l.64.25ZM94.44,28.08c.51.06,1.02.11,1.53.15-.54-.14-1.09-.27-1.65-.37l.11.22ZM103.72,27.52l.54.69c.2-.03.39-.06.59-.09h.08c-.55-.71-1.12-1.38-1.69-2.02.11.32.48,1.41.48,1.41ZM94.06,27.35c1.08.18,2.15.45,3.19.78-.74-.33-1.48-.67-2.24-1.02-.46-.21-.93-.43-1.4-.64l.45.88ZM104.78,25.77c.27.75.55,1.5.83,2.25,0,0,.15-.02.18-.02-.33-.72-.67-1.46-1.01-2.22ZM90.65,27.59c1.06.14,2.13.29,3.2.42l-.13-.25c-1.17-.18-2.39-.28-3.63-.28-.09,0-.19,0-.28,0,.28.04.56.08.84.11ZM75.8,26.58c-.53.36-1.07.72-1.61,1.1.38-.09.77-.18,1.17-.27.14-.27.45-.83.45-.83ZM85.08,27.45s.07-.01.1-.02c-.03,0-.06,0-.09,0v.02ZM82.41,22.53c-1.68.88-3.51,1.99-5.76,3.49l-.13.26c-.18.34-.36.67-.54,1.01.76-.14,1.43-.25,2.09-.33,1.1-.13,2.23-.2,3.44-.2,1.02,0,2.11.05,3.31.14l.43-.78c1.2-.75,2.29-1.31,3.39-1.76-.73-.28-1.49-.55-2.29-.82-1.37-.46-2.69-.8-3.94-1.01ZM89.99,27.01c1.18,0,2.35.08,3.48.25l-.59-1.14c-1.29-.55-2.46-1.04-3.61-1.5-1.12.44-2.38,1.06-3.67,1.85l-.25.49c.64.06,1.28.12,1.92.2.9-.09,1.83-.14,2.72-.14ZM102.87,24.99c.52.53,1.07,1.15,1.63,1.82-.5-1.14-.95-2.06-1.37-2.87-.56-1.06-1.09-2.03-1.59-2.95.28.83,1.34,4,1.34,4ZM75.05,16.83c-1.37,1.02-2.75,2.32-4.22,3.95-.18.2-.36.42-.53.64l-.26.32c-.68,1.56-1.37,3.23-2.07,4.96.22-.21.44-.41.66-.6.95-1.67,1.74-2.92,2.52-4.04.8-1.14,1.81-2.14,3-2.98.27-.72.58-1.49.9-2.26ZM101.36,24.2c.53.84,1,1.52,1.44,2.12-.12-.35-.24-.71-.36-1.08-.35-.35-.71-.7-1.07-1.04ZM92.76,19.87c.68.61,1.37,1.25,2.08,1.93l.33.31c.93.9,1.82,1.74,2.68,2.55.42.25.84.54,1.25.88-.51-1.48-1.02-2.84-1.53-4.17-1.55-.83-3.14-1.34-4.8-1.5ZM90.01,24.38c.81.33,1.65.68,2.53,1.07l-.76-1.48c-.61.09-1.2.23-1.77.41ZM105.18,25.45c-.37-1.06-.72-2.05-1.08-2.99-.27-.43-.55-.86-.84-1.29.36.8,1.67,3.73,1.91,4.28ZM73.77,20c-.87.7-1.61,1.49-2.22,2.36-.58.82-1.15,1.72-1.83,2.85.93-.73,1.81-1.32,2.69-1.79l.03-.05.07-.08.05-.13c.39-1.03.8-2.09,1.22-3.16ZM78.76,22.25c-.55.95-1.08,1.9-1.6,2.85,1.68-1.1,3.12-1.96,4.46-2.69-.85-.12-1.67-.17-2.42-.17-.15,0-.29,0-.44,0ZM72.1,16.14c-1.61,2.39-3.14,4.74-4.48,6.81l-.41.63c-.12.26-.25.52-.37.78,1.2-1.76,2.3-3.33,3.34-4.76,0,0,.44-.76.55-.94l.68-1.12c.23-.48.46-.95.68-1.4ZM94.46,12.99c1.68,2.3,3.19,4.91,4.54,7.23.51.88,1,1.73,1.5,2.55.51.41,1.05.89,1.59,1.41l-.19-.57c-.53-1.59-1.08-3.25-1.67-4.92-.73-1.24-1.39-2.29-2-3.2-1.26-1.04-2.53-1.89-3.77-2.51ZM83.11,22.17c1.13.23,2.25.53,3.39.91.92.31,1.85.65,2.85,1.04.69-.28,1.44-.48,2.18-.6-.71-1.31-1.65-2.46-2.79-3.41-1.73.35-3.58,1.03-5.64,2.06ZM93.27,23.36c.83,0,1.63.11,2.39.33.22.06.44.14.68.23-.5-.47-1.85-1.77-1.85-1.77-.92-.88-1.75-1.65-2.56-2.36-.07.02-.18.02-.31.02h-.1c-.7,0-1.43.06-2.16.18,1.08.97,1.98,2.13,2.67,3.44.41-.05.83-.08,1.22-.08ZM100.68,18.51c.83,1.4,1.72,3.02,2.72,4.91-.5-1.36-1.05-2.83-1.62-4.27-.47-.58-.97-1.16-1.49-1.71.13.36.25.71.38,1.07ZM81.13,17.39c-1.09,0-2.17.15-3.19.44-1.57,1.62-3.15,3.47-4.51,5.12,1.62-.71,3.28-1.1,5.04-1.19l.27-.47c.14-.25.29-.5.43-.75.66-1.12,1.31-2.15,1.97-3.15h-.01ZM76.99,18.12c-.86.33-1.7.78-2.5,1.33-.33.88-.68,1.79-1.02,2.67,1.06-1.27,2.26-2.68,3.52-4.01ZM79.24,21.75c1.01,0,2.08.09,3.16.28,2.11-1.12,4.05-1.88,5.85-2.3-1.83-1.37-3.99-2.18-6.26-2.34l-.17-.12v.12c-.76,1.01-1.49,2.17-2.22,3.39-.13.22-.25.44-.38.66l-.18.31c.07,0,.13,0,.2,0ZM95.91,16.14c.66,1.45,1.33,3.06,2.06,4.93.47.24.97.55,1.48.91-.29-.49-.58-1-.88-1.51-.89-1.53-1.86-3.22-2.9-4.84.08.17.16.34.24.51ZM84.02,14.24c2.37.68,4.98,2.32,8.18,5.13,1.73.04,3.42.48,5.09,1.3-.65-1.66-1.24-3.04-1.82-4.33-.57-1.25-1.15-2.45-1.75-3.57l-.18-.23c-1.41-.58-2.87-.89-4.29-.89-.29,0-.58.01-.87.04-.85.08-1.72.27-2.64.61-.51.52-1.1,1.18-1.72,1.95ZM97.5,9.25c2.02,3.11,3.54,6.64,4.68,9.54l.05.1c.35.45.69.92,1.05,1.43-1.88-4.69-3.78-8.35-5.78-11.07ZM77.88,10.78c-2,2.17-4.14,4.81-6.51,8.03-.2.43-.4.88-.6,1.32,1.63-1.78,3.17-3.15,4.69-4.19.82-1.95,1.63-3.66,2.43-5.17ZM82.05,16.9c2.52.18,4.88,1.11,6.84,2.69.62-.12,1.17-.2,1.68-.24.28-.02.56-.03.83-.04-3.01-2.58-5.47-4.07-7.71-4.67-.52.67-1.07,1.42-1.63,2.25ZM74.47,11.62c-1.67,1.97-3.36,4.53-5.11,7.76,1.42-2.17,2.93-4.43,4.51-6.67.2-.37.4-.73.6-1.09ZM81.1,14.35c-1.71.07-3.45.71-5.31,1.96-.3.74-.62,1.52-.93,2.3.87-.52,1.84-.94,2.89-1.24,1.15-1.19,2.26-2.19,3.35-3.02ZM97.81,11.18c.69,1.51,1.38,3.23,2.1,5.19.37.35.75.74,1.14,1.17-1.17-2.47-2.23-4.55-3.24-6.35ZM81.9,14.37c-1.05.76-2.12,1.67-3.26,2.79.83-.17,1.67-.26,2.52-.26.1,0,.21,0,.31,0,.61-.9,1.16-1.67,1.69-2.36-.42-.09-.85-.14-1.26-.17ZM86.64,3.98c1.89.66,3.75,2.43,5.67,5.39,1.95.53,3.97,2.4,6.29,5.81l.12.09c.06.05.12.09.18.14.07.06.13.12.2.18-1.55-4.09-2.99-7.06-4.5-9.32-.41-.46-.82-.88-1.21-1.23-.76-.53-1.56-.96-2.35-1.25-.58-.21-1.19-.32-1.83-.32-.8,0-1.67.17-2.58.51ZM79.97,7.3c-.2.08-.39.16-.59.25-.18.08-.36.18-.55.28-1.57,1.73-3.32,4.14-5.55,7.65,1.99-2.54,3.81-4.64,5.55-6.39.37-.63.76-1.24,1.15-1.8ZM83.93,6.47c-.56,0-1.13.05-1.7.16-.93.76-1.96,1.69-3.01,2.76-.99,1.67-1.99,3.67-3.05,6.1,1.7-1.03,3.33-1.56,4.95-1.62h.24c.15,0,.3,0,.45,0,1.2-.88,2.47-1.57,3.73-2.02,1.69-1.67,3.31-2.57,4.89-2.71-2.09-1.8-4.21-2.67-6.48-2.67ZM92.7,10c.42.68.85,1.43,1.29,2.26,1.03.43,2.13,1.06,3.25,1.87-1.64-2.18-3.1-3.51-4.54-4.12ZM82.54,13.93c.34.04.66.1.97.17.39-.49.79-.95,1.17-1.38-.7.33-1.41.72-2.14,1.21ZM77.31,8.84c-.91,1.2-1.9,2.54-2.99,4.08-.07.13-.14.26-.21.4,1.22-1.83,2.3-3.32,3.31-4.56-.04.03-.07.05-.11.08ZM89.26,11.16c1.22,0,2.46.22,3.71.65-.7-.86-1.38-1.59-2.07-2.24l-.05.03c-1.35,0-2.73.62-4.23,1.9.59-.15,1.16-.25,1.72-.3.31-.03.61-.04.92-.04ZM91.66,9.69c.26.25.51.52.77.79-.16-.26-.32-.51-.47-.76-.08,0-.18-.02-.29-.04ZM91.22,9.14c.11,0,.23.01.37.03-1.96-2.9-3.82-4.5-5.71-4.9-.87.42-1.85,1.01-2.86,1.76.28-.03.56-.04.83-.04,2.54,0,4.91,1.03,7.24,3.16.04,0,.08,0,.12,0ZM86.59.49c-2.92,0-6.17,2.7-9.65,8.02.01-.01.03-.02.04-.03l.1-.15c3.86-5,7.3-7.42,10.51-7.42.35,0,.71.03,1.06.09.1.02.19.04.29.06-.43-.19-.87-.34-1.29-.44-.35-.08-.7-.12-1.06-.12ZM81.22,6.87c-.16.05-.32.1-.48.15-.14.21-.29.43-.45.67.31-.28.62-.56.93-.82ZM87.65,1.4c-2.8,0-5.94,2.07-9.31,6.15.08-.05.16-.09.24-.14,1.4-1.54,2.7-2.59,3.96-3.17,1.38-1.32,2.84-2.11,4.3-2.34.3-.05.6-.07.9-.07,1.51,0,3.07.58,4.65,1.74-1.23-1.19-2.49-1.88-3.82-2.1-.3-.05-.61-.08-.92-.08ZM81.29,5.57c-.48.35-.98.78-1.49,1.27.23-.09.46-.18.72-.26.24-.34.5-.68.77-1.01ZM84.94,4.17c-.71,0-1.42.17-2.17.51-.48.47-.99,1.03-1.49,1.66.28-.07.55-.13.82-.18,1-.81,2.01-1.48,2.98-1.99-.05,0-.09,0-.14,0ZM87.75,2.33c-.28,0-.56.02-.84.06-1.04.17-2.09.64-3.12,1.42.39-.09.77-.14,1.15-.14.1,0,.19,0,.29,0,.23.01.47.05.7.09,1.12-.52,2.26-.79,3.3-.79.62,0,1.23.09,1.8.28-1.12-.63-2.22-.95-3.29-.95Z"/>
  </g>
</svg>