<?xml version="1.0" encoding="UTF-8"?>
<svg id="_Слой_2" data-name="Слой 2" xmlns="http://www.w3.org/2000/svg" viewBox="0 0 350.03 271.96">
  <defs>
    <style>
      .cls-1 {
        stroke: #A6BDD7;
      }

      .cls-1, .cls-2 {
        fill: none;
        stroke-linecap: round;
        stroke-linejoin: round;
        stroke-width: .50px;
      }

      .cls-2 {
        stroke: #A6BDD7;
      }
    </style>
  </defs>
  <g id="OBJECTS">
    <g>
      <g>
        <polygon class="cls-2" points="72.91 98.94 84.03 58.6 89.07 129.75 72.91 98.94"/>
        <polygon class="cls-2" points="89.07 129.75 84.03 58.6 101.24 97.48 89.07 129.75"/>
        <polygon class="cls-2" points="101.24 97.48 84.03 58.6 104.21 87.98 101.24 97.48"/>
        <polygon class="cls-2" points="89.07 129.75 101.24 97.48 107.24 175.84 89.07 129.75"/>
        <polygon class="cls-2" points="101.24 97.48 104.21 87.98 109.44 98.03 114.59 107.92 115.74 110.15 119.43 117.22 101.24 97.48"/>
        <polygon class="cls-2" points="101.24 97.48 119.43 117.22 121.06 159.94 101.24 97.48"/>
        <polygon class="cls-2" points="72.91 98.94 89.07 129.75 79.35 177.81 72.91 98.94"/>
        <polygon class="cls-2" points="72.91 98.94 79.35 177.81 66.14 163.63 72.91 98.94"/>
        <polygon class="cls-2" points="79.35 177.81 89.07 129.75 92.57 190.25 79.35 177.81"/>
        <polygon class="cls-2" points="72.91 98.94 66.14 163.63 65.41 120.27 72.91 98.94"/>
        <polygon class="cls-2" points="66.14 163.63 79.35 177.81 63.98 192.37 66.14 163.63"/>
        <polygon class="cls-2" points="66.14 163.63 63.98 192.37 52.3 186.22 66.14 163.63"/>
        <polygon class="cls-2" points="63.98 192.37 79.35 177.81 76.15 198.79 63.98 192.37"/>
        <polygon class="cls-2" points="66.14 163.63 52.3 186.22 56.33 166.57 66.14 163.63"/>
        <polygon class="cls-2" points="200.47 111.86 204.71 113.18 202.32 114.32 200.47 111.86"/>
        <polygon class="cls-2" points="202.32 114.32 204.71 113.18 205.67 118.78 202.32 114.32"/>
        <polygon class="cls-2" points="341.51 165.29 332.95 172.45 325.72 160.18 341.51 165.29"/>
        <polygon class="cls-2" points="325.72 160.18 332.95 172.45 316.91 167.07 325.72 160.18"/>
        <polygon class="cls-2" points="341.51 165.29 325.72 160.18 334.09 153.63 341.51 165.29"/>
        <polygon class="cls-2" points="334.09 153.63 349.65 158.49 341.51 165.29 334.09 153.63"/>
        <polygon class="cls-2" points="325.72 160.18 316.91 167.07 310.5 155.26 325.72 160.18"/>
        <polygon class="cls-2" points="316.91 167.07 332.95 172.45 323.93 179.99 316.91 167.07"/>
        <polygon class="cls-2" points="316.91 167.07 323.93 179.99 307.65 174.32 316.91 167.07"/>
        <polygon class="cls-2" points="316.91 167.07 307.65 174.32 301.48 161.9 316.91 167.07"/>
        <polygon class="cls-2" points="307.65 174.32 323.93 179.99 314.42 187.94 307.65 174.32"/>
        <polygon class="cls-2" points="307.65 174.32 314.42 187.94 297.89 181.96 307.65 174.32"/>
        <polygon class="cls-2" points="307.65 174.32 297.89 181.96 292 168.88 307.65 174.32"/>
        <polygon class="cls-2" points="297.89 181.96 314.42 187.94 304.37 196.33 297.89 181.96"/>
        <polygon class="cls-2" points="297.89 181.96 304.37 196.33 287.6 190.02 297.89 181.96"/>
        <polygon class="cls-2" points="334.09 153.63 325.72 160.18 319.09 148.94 334.09 153.63"/>
        <polygon class="cls-2" points="319.09 148.94 325.72 160.18 310.5 155.26 319.09 148.94"/>
        <polygon class="cls-2" points="244.27 246.56 229.81 258.65 226.2 235.84 244.27 246.56"/>
        <polygon class="cls-2" points="226.2 235.84 229.81 258.65 211.55 249.55 226.2 235.84"/>
        <polygon class="cls-2" points="244.27 246.56 226.2 235.84 239.91 211.48 244.27 246.56"/>
        <polygon class="cls-2" points="239.91 211.48 226.2 235.84 222.46 195.69 239.91 211.48"/>
        <polygon class="cls-2" points="244.27 246.56 239.91 211.48 257.83 233.05 244.27 246.56"/>
        <polygon class="cls-2" points="319.09 148.94 310.5 155.26 304.6 144.41 319.09 148.94"/>
        <polygon class="cls-2" points="310.5 155.26 316.91 167.07 301.48 161.9 310.5 155.26"/>
        <polygon class="cls-2" points="301.48 161.9 307.65 174.32 292 168.88 301.48 161.9"/>
        <polygon class="cls-2" points="310.5 155.26 301.48 161.9 295.92 148.23 310.5 155.26"/>
        <polygon class="cls-2" points="214.34 271.58 195.85 261.84 211.55 249.55 214.34 271.58"/>
        <polygon class="cls-2" points="257.83 233.05 239.91 211.48 253.11 193.31 257.83 233.05"/>
        <polygon class="cls-2" points="301.48 161.9 292 168.88 286.81 151.49 301.48 161.9"/>
        <polygon class="cls-2" points="253.11 193.31 239.91 211.48 235.83 175.64 253.11 193.31"/>
        <polygon class="cls-2" points="214.34 271.58 211.55 249.55 229.81 258.65 214.34 271.58"/>
        <polygon class="cls-2" points="211.55 249.55 195.85 261.84 194.18 240.89 211.55 249.55"/>
        <polygon class="cls-2" points="257.83 233.05 253.11 193.31 270.64 219.6 257.83 233.05"/>
        <polygon class="cls-2" points="270.64 219.6 253.11 193.31 265.46 192.42 270.64 219.6"/>
        <polygon class="cls-2" points="265.46 192.42 253.11 193.31 248.68 177.82 265.46 192.42"/>
        <polygon class="cls-2" points="270.64 219.6 265.46 192.42 282.55 212.52 274.43 217.35 270.64 219.6"/>
        <polygon class="cls-2" points="282.55 212.52 265.46 192.42 276.78 196.5 282.55 212.52"/>
        <polygon class="cls-2" points="287.6 190.02 304.37 196.33 293.74 205.22 287.6 190.02"/>
        <polygon class="cls-2" points="287.6 190.02 293.74 205.22 276.78 196.5 287.6 190.02"/>
        <polygon class="cls-2" points="287.6 190.02 276.78 196.5 271.51 183.97 287.6 190.02"/>
        <polygon class="cls-2" points="276.78 196.5 293.74 205.22 282.55 212.52 276.78 196.5"/>
        <polygon class="cls-2" points="276.78 196.5 265.46 192.42 260.46 187.45 276.78 196.5"/>
        <polygon class="cls-2" points="292 168.88 297.89 181.96 282.02 176.22 292 168.88"/>
        <polygon class="cls-2" points="297.89 181.96 287.6 190.02 282.02 176.22 297.89 181.96"/>
        <polygon class="cls-2" points="226.2 235.84 211.55 249.55 208.87 224.85 226.2 235.84"/>
        <polygon class="cls-2" points="304.6 144.41 310.5 155.26 295.92 148.23 304.6 144.41"/>
        <polygon class="cls-2" points="282.02 176.22 287.6 190.02 271.51 183.97 282.02 176.22"/>
        <polygon class="cls-2" points="265.46 192.42 248.68 177.82 251.79 180.36 260.46 187.45 265.46 192.42"/>
        <polygon class="cls-2" points="235.83 175.64 239.91 211.48 222.46 195.69 235.83 175.64"/>
        <polygon class="cls-2" points="235.83 175.64 222.46 195.69 219.57 179.97 225.42 178.41 229.13 177.42 235.83 175.64"/>
        <polygon class="cls-2" points="222.46 195.69 226.2 235.84 208.87 224.85 222.46 195.69"/>
        <polygon class="cls-2" points="208.87 224.85 211.55 249.55 194.18 240.89 208.87 224.85"/>
        <polygon class="cls-2" points="282.02 176.22 271.51 183.97 266.76 170.7 282.02 176.22"/>
        <polygon class="cls-2" points="248.68 177.82 253.11 193.31 235.83 175.64 236.36 175.73 242.5 176.77 248.68 177.82"/>
        <polygon class="cls-2" points="194.18 240.89 195.85 261.84 178.29 252.59 194.18 240.89"/>
        <polygon class="cls-2" points="194.18 240.89 178.29 252.59 177.62 232.64 194.18 240.89"/>
        <polygon class="cls-2" points="304.6 144.41 295.92 148.23 290.71 137.82 304.6 144.41"/>
        <polygon class="cls-2" points="271.51 183.97 276.78 196.5 260.46 187.45 271.51 183.97"/>
        <polygon class="cls-2" points="271.51 183.97 260.46 187.45 256.05 178.15 271.51 183.97"/>
        <polygon class="cls-2" points="295.92 148.23 301.48 161.9 286.81 151.49 295.92 148.23"/>
        <polygon class="cls-2" points="208.87 224.85 194.18 240.89 192.56 220.03 208.87 224.85"/>
        <polygon class="cls-2" points="295.92 148.23 286.81 151.49 282.17 129.54 295.92 148.23"/>
        <polygon class="cls-2" points="222.46 195.69 208.87 224.85 206.22 197.03 222.46 195.69"/>
        <polygon class="cls-2" points="286.81 151.49 292 168.88 277 161.27 286.81 151.49"/>
        <polygon class="cls-2" points="286.81 151.49 277 161.27 272.85 126.38 286.81 151.49"/>
        <polygon class="cls-2" points="277 161.27 292 168.88 282.02 176.22 277 161.27"/>
        <polygon class="cls-2" points="277 161.27 282.02 176.22 266.76 170.7 277 161.27"/>
        <polygon class="cls-2" points="277 161.27 266.76 170.7 262.65 141.58 277 161.27"/>
        <polygon class="cls-2" points="295.92 148.23 282.17 129.54 290.71 137.82 295.92 148.23"/>
        <polygon class="cls-2" points="282.17 129.54 286.81 151.49 272.85 126.38 282.17 129.54"/>
        <polygon class="cls-2" points="219.57 179.97 222.46 195.69 206.22 197.03 219.57 179.97"/>
        <polygon class="cls-2" points="282.17 129.54 272.85 126.38 268.45 116.59 282.17 129.54"/>
        <polygon class="cls-2" points="277 161.27 262.65 141.58 272.85 126.38 277 161.27"/>
        <polygon class="cls-2" points="208.87 224.85 192.56 220.03 206.22 197.03 208.87 224.85"/>
        <polygon class="cls-2" points="192.56 220.03 194.18 240.89 177.62 232.64 192.56 220.03"/>
        <polygon class="cls-2" points="192.56 220.03 177.62 232.64 177.33 219.17 192.56 220.03"/>
        <polygon class="cls-2" points="266.76 170.7 271.51 183.97 256.05 178.15 266.76 170.7"/>
        <polygon class="cls-2" points="256.05 178.15 260.46 187.45 251.79 180.36 256.05 178.15"/>
        <polygon class="cls-2" points="177.62 232.64 178.29 252.59 173.07 249.84 166.02 246.13 161.58 243.79 177.62 232.64"/>
        <polygon class="cls-2" points="272.85 126.38 262.65 141.58 258.79 110.34 272.85 126.38"/>
        <polygon class="cls-2" points="262.65 141.58 266.76 170.7 252.08 163.01 262.65 141.58"/>
        <polygon class="cls-2" points="262.65 141.58 252.08 163.01 248.44 127.87 262.65 141.58"/>
        <polygon class="cls-2" points="177.62 232.64 161.58 243.79 161.82 224.77 177.62 232.64"/>
        <polygon class="cls-2" points="252.08 163.01 266.76 170.7 256.05 178.15 252.08 163.01"/>
        <polygon class="cls-2" points="256.05 178.15 251.79 180.36 248.68 177.82 242.5 176.77 241.19 172.55 256.05 178.15"/>
        <polygon class="cls-2" points="252.08 163.01 256.05 178.15 241.19 172.55 252.08 163.01"/>
        <polygon class="cls-2" points="252.08 163.01 241.19 172.55 237.88 154.81 252.08 163.01"/>
        <polygon class="cls-2" points="219.57 179.97 206.22 197.03 204.83 196 213.94 186.09 216.93 182.84 219.57 179.97"/>
        <polygon class="cls-2" points="206.22 197.03 192.56 220.03 191.79 213.31 206.22 197.03"/>
        <polygon class="cls-2" points="192.56 220.03 177.33 219.17 178.5 218.7 181.58 217.45 191.4 213.47 191.79 213.31 192.56 220.03"/>
        <polygon class="cls-2" points="177.33 219.17 177.62 232.64 161.82 224.77 165.73 223.35 174.11 220.34 177.33 219.17"/>
        <polygon class="cls-2" points="268.45 116.59 272.85 126.38 258.79 110.34 268.45 116.59"/>
        <polygon class="cls-2" points="258.79 110.34 262.65 141.58 248.44 127.87 258.79 110.34"/>
        <polygon class="cls-2" points="248.44 127.87 252.08 163.01 237.88 154.81 248.44 127.87"/>
        <polygon class="cls-2" points="161.82 224.77 161.58 243.79 158.34 242.08 150.53 237.97 145.65 235.4 161.82 224.77"/>
        <polygon class="cls-2" points="161.82 224.77 145.65 235.4 147.18 221.67 149.74 222.21 152.41 222.78 156.05 223.55 161.82 224.77"/>
        <polygon class="cls-2" points="204.83 196 206.22 197.03 191.79 213.31 195.65 208.19 204.83 196"/>
        <polygon class="cls-2" points="237.88 154.81 241.19 172.55 226.89 167.17 237.88 154.81"/>
        <polygon class="cls-2" points="237.88 154.81 226.89 167.17 224.17 149.47 237.88 154.81"/>
        <polygon class="cls-2" points="258.79 110.34 248.44 127.87 245.02 117.96 258.79 110.34"/>
        <polygon class="cls-2" points="226.89 167.17 241.19 172.55 236.36 175.73 235.83 175.64 229.13 177.42 226.89 167.17"/>
        <polygon class="cls-2" points="226.89 167.17 229.13 177.42 225.42 178.41 215.28 174.43 226.89 167.17"/>
        <polygon class="cls-2" points="236.36 175.73 241.19 172.55 242.5 176.77 236.36 175.73"/>
        <polygon class="cls-2" points="248.44 127.87 237.88 154.81 234.74 132.48 248.44 127.87"/>
        <polygon class="cls-2" points="245.02 117.96 248.44 127.87 234.74 132.48 245.02 117.96"/>
        <polygon class="cls-2" points="234.74 132.48 237.88 154.81 224.17 149.47 234.74 132.48"/>
        <polygon class="cls-2" points="234.74 132.48 224.17 149.47 221.79 138.79 234.74 132.48"/>
        <polygon class="cls-2" points="224.17 149.47 226.89 167.17 212.85 153.54 224.17 149.47"/>
        <polygon class="cls-2" points="245.02 117.96 234.74 132.48 232.12 133.53 235.12 129.91 239.46 124.67 239.87 124.17 245.02 117.96"/>
        <polygon class="cls-2" points="226.89 167.17 215.28 174.43 212.85 153.54 226.89 167.17"/>
        <polygon class="cls-2" points="147.18 221.67 145.65 235.4 143.81 234.43 130.47 227.4 147.18 221.67"/>
        <polygon class="cls-2" points="147.18 221.67 130.47 227.4 133.47 220.15 135.46 220.37 137.19 220.56 147.18 221.67"/>
        <polygon class="cls-2" points="215.28 174.43 225.42 178.41 219.57 179.97 216.93 182.84 215.28 174.43"/>
        <polygon class="cls-2" points="215.28 174.43 216.93 182.84 213.94 186.09 203.22 186.17 215.28 174.43"/>
        <polygon class="cls-2" points="215.28 174.43 203.22 186.17 201.22 165.29 215.28 174.43"/>
        <polygon class="cls-2" points="203.22 186.17 213.94 186.09 204.83 196 203.22 186.17"/>
        <polygon class="cls-2" points="203.22 186.17 204.83 196 195.65 208.19 203.22 186.17"/>
        <polygon class="cls-2" points="203.22 186.17 195.65 208.19 191.79 213.31 191.4 213.47 189.55 185.67 203.22 186.17"/>
        <polygon class="cls-2" points="224.17 149.47 212.85 153.54 210.26 124.88 224.17 149.47"/>
        <polygon class="cls-2" points="212.85 153.54 215.28 174.43 201.22 165.29 212.85 153.54"/>
        <polygon class="cls-2" points="212.85 153.54 201.22 165.29 198 116.43 212.85 153.54"/>
        <polygon class="cls-2" points="201.22 165.29 203.22 186.17 189.55 185.67 201.22 165.29"/>
        <polygon class="cls-2" points="173.07 249.84 167.54 255.11 166.02 246.13 173.07 249.84"/>
        <polygon class="cls-2" points="234.74 132.48 221.79 138.79 232.12 133.53 234.74 132.48"/>
        <polygon class="cls-2" points="232.12 133.53 221.79 138.79 219.74 134.49 232.12 133.53"/>
        <polygon class="cls-2" points="221.79 138.79 224.17 149.47 210.26 124.88 212.71 127.84 217.63 133.78 217.89 134.09 221.79 138.79"/>
        <polygon class="cls-2" points="133.47 220.15 130.47 227.4 115.97 219.76 133.47 220.15"/>
        <polygon class="cls-2" points="133.47 220.15 115.97 219.76 119.04 207.47 133.47 220.15"/>
        <polygon class="cls-2" points="210.26 124.88 212.85 153.54 198 116.43 210.26 124.88"/>
        <polygon class="cls-2" points="210.26 124.88 198 116.43 196.65 106.76 200.47 111.86 202.32 114.32 205.67 118.78 207.28 120.92 208.22 122.16 210.26 124.88"/>
        <polygon class="cls-2" points="152.18 245.99 143.81 234.43 145.65 235.4 150.53 237.97 152.18 245.99"/>
        <polygon class="cls-2" points="152.18 245.99 150.53 237.97 158.34 242.08 152.18 245.99"/>
        <polygon class="cls-2" points="198 116.43 201.22 165.29 186.47 137.03 198 116.43"/>
        <polygon class="cls-2" points="152.18 245.99 158.34 242.08 161.58 243.79 166.02 246.13 167.54 255.11 152.18 245.99"/>
        <polygon class="cls-2" points="198 116.43 186.47 137.03 183.68 93.3 198 116.43"/>
        <polygon class="cls-2" points="186.47 137.03 201.22 165.29 189.55 185.67 186.47 137.03"/>
        <polygon class="cls-2" points="186.47 137.03 189.55 185.67 175.56 171.11 186.47 137.03"/>
        <polygon class="cls-2" points="189.55 185.67 191.4 213.47 181.58 217.45 189.55 185.67"/>
        <polygon class="cls-2" points="189.55 185.67 181.58 217.45 178.5 218.7 175.56 171.11 189.55 185.67"/>
        <polygon class="cls-2" points="239.16 123.95 239.87 124.17 239.46 124.67 239.16 123.95"/>
        <polygon class="cls-2" points="239.16 123.95 239.46 124.67 235.12 129.91 229.66 129.1 239.16 123.95"/>
        <polygon class="cls-2" points="239.16 123.95 229.66 129.1 227.31 120.25 239.16 123.95"/>
        <polygon class="cls-2" points="198 116.43 183.68 93.3 196.65 106.76 198 116.43"/>
        <polygon class="cls-2" points="183.68 93.3 186.47 137.03 172.3 117.9 183.68 93.3"/>
        <polygon class="cls-2" points="115.97 219.76 102.11 212.46 119.04 207.47 115.97 219.76"/>
        <polygon class="cls-2" points="133.47 220.15 119.04 207.47 121.28 192.32 135.46 220.37 133.47 220.15"/>
        <polygon class="cls-2" points="232.12 133.53 219.74 134.49 229.66 129.1 232.12 133.53"/>
        <polygon class="cls-2" points="219.74 134.49 221.79 138.79 217.89 134.09 219.74 134.49"/>
        <polygon class="cls-2" points="183.68 93.3 172.3 117.9 172.03 108.11 173.38 106.4 175.28 103.98 183.68 93.3"/>
        <polygon class="cls-2" points="172.3 117.9 186.47 137.03 175.56 171.11 172.3 117.9"/>
        <polygon class="cls-2" points="172.3 117.9 175.56 171.11 161.87 156.95 172.3 117.9"/>
        <polygon class="cls-2" points="219.74 134.49 217.89 134.09 217.63 133.78 219.74 134.49"/>
        <polygon class="cls-2" points="119.04 207.47 102.11 212.46 105.26 196.58 119.04 207.47"/>
        <polygon class="cls-2" points="229.66 129.1 235.12 129.91 232.12 133.53 229.66 129.1"/>
        <polygon class="cls-2" points="172.3 117.9 161.87 156.95 160.62 127.85 172.3 117.9"/>
        <polygon class="cls-2" points="161.87 156.95 175.56 171.11 164.78 206.73 161.87 156.95"/>
        <polygon class="cls-2" points="229.66 129.1 219.74 134.49 217.71 125.24 229.66 129.1"/>
        <polygon class="cls-2" points="175.56 171.11 178.5 218.7 177.33 219.17 174.11 220.34 164.78 206.73 175.56 171.11"/>
        <polygon class="cls-2" points="164.78 206.73 174.11 220.34 165.73 223.35 164.78 206.73"/>
        <polygon class="cls-2" points="164.78 206.73 165.73 223.35 161.82 224.77 156.05 223.55 164.78 206.73"/>
        <polygon class="cls-2" points="164.78 206.73 156.05 223.55 152.41 222.78 149.74 176.66 164.78 206.73"/>
        <polygon class="cls-2" points="149.74 176.66 152.41 222.78 149.74 222.21 136.47 189.64 149.74 176.66"/>
        <polygon class="cls-2" points="227.31 120.25 229.66 129.1 217.71 125.24 227.31 120.25"/>
        <polygon class="cls-2" points="172.03 108.11 172.3 117.9 160.62 127.85 161.93 125.59 164.81 120.61 166.37 117.91 170.61 110.57 171.96 108.23 172.03 108.11"/>
        <polygon class="cls-2" points="160.62 127.85 161.87 156.95 149.75 156.77 160.62 127.85"/>
        <polygon class="cls-2" points="149.75 156.77 161.87 156.95 149.74 176.66 149.75 156.77"/>
        <polygon class="cls-2" points="160.62 127.85 149.75 156.77 150.43 145.62 157.38 133.5 160.62 127.85"/>
        <polygon class="cls-2" points="149.74 176.66 161.87 156.95 164.78 206.73 149.74 176.66"/>
        <polygon class="cls-2" points="149.74 176.66 136.47 189.64 136.15 161.17 149.74 176.66"/>
        <polygon class="cls-2" points="136.47 189.64 149.74 222.21 147.18 221.67 137.19 220.56 136.47 189.64"/>
        <polygon class="cls-2" points="219.74 134.49 217.63 133.78 212.71 127.84 217.71 125.24 219.74 134.49"/>
        <polygon class="cls-2" points="217.71 125.24 212.71 127.84 210.26 124.88 208.22 122.16 217.71 125.24"/>
        <polygon class="cls-2" points="136.47 189.64 137.19 220.56 135.46 220.37 121.28 192.32 136.47 189.64"/>
        <polygon class="cls-2" points="136.47 189.64 121.28 192.32 121.06 159.94 136.47 189.64"/>
        <polygon class="cls-2" points="149.75 156.77 149.74 176.66 136.15 161.17 149.75 156.77"/>
        <polygon class="cls-2" points="227.31 120.25 217.71 125.24 215.83 116.66 227.31 120.25"/>
        <polygon class="cls-2" points="149.75 156.77 136.15 161.17 137.43 149.53 149.75 156.77"/>
        <polygon class="cls-2" points="121.28 192.32 119.04 207.47 105.26 196.58 121.28 192.32"/>
        <polygon class="cls-2" points="121.28 192.32 105.26 196.58 107.24 175.84 121.28 192.32"/>
        <polygon class="cls-2" points="102.11 212.46 88.85 205.47 105.26 196.58 102.11 212.46"/>
        <polygon class="cls-2" points="105.26 196.58 88.85 205.47 92.57 190.25 105.26 196.58"/>
        <polygon class="cls-2" points="215.83 116.66 217.71 125.24 208.22 122.16 207.28 120.92 215.83 116.66"/>
        <polygon class="cls-2" points="136.15 161.17 136.47 189.64 121.06 159.94 136.15 161.17"/>
        <polygon class="cls-2" points="136.15 161.17 121.06 159.94 119.43 117.22 136.15 161.17"/>
        <polygon class="cls-2" points="121.28 192.32 107.24 175.84 121.06 159.94 121.28 192.32"/>
        <polygon class="cls-2" points="107.24 175.84 105.26 196.58 92.57 190.25 107.24 175.84"/>
        <polygon class="cls-2" points="107.24 175.84 92.57 190.25 89.07 129.75 107.24 175.84"/>
        <polygon class="cls-2" points="150.43 145.62 149.75 156.77 137.43 149.53 150.43 145.62"/>
        <polygon class="cls-2" points="150.43 145.62 137.43 149.53 139.2 144.58 150.43 145.62"/>
        <polygon class="cls-2" points="150.43 145.62 139.2 144.58 150.69 131.34 150.43 145.62"/>
        <polygon class="cls-2" points="150.69 131.34 139.2 144.58 134.74 79.72 150.69 131.34"/>
        <polygon class="cls-2" points="150.43 145.62 150.69 131.34 157.38 133.5 150.43 145.62"/>
        <polygon class="cls-2" points="157.38 133.5 150.69 131.34 161.63 116.09 161.93 125.59 160.62 127.85 157.38 133.5"/>
        <polygon class="cls-2" points="161.93 125.59 161.63 116.09 164.81 120.61 161.93 125.59"/>
        <polygon class="cls-2" points="164.81 120.61 161.63 116.09 166.37 117.91 164.81 120.61"/>
        <polygon class="cls-2" points="161.63 116.09 150.69 131.34 144.39 44.65 161.63 116.09"/>
        <polygon class="cls-2" points="166.37 117.91 161.63 116.09 158.95 71.13 170.61 110.57 166.37 117.91"/>
        <polygon class="cls-2" points="170.61 110.57 158.95 71.13 169.88 102.29 170.65 104.48 171.96 108.23 170.61 110.57"/>
        <polygon class="cls-2" points="158.95 71.13 161.63 116.09 144.39 44.65 158.95 71.13"/>
        <polygon class="cls-2" points="139.2 144.58 137.43 149.53 132.79 141.2 139.2 144.58"/>
        <polygon class="cls-2" points="139.2 144.58 132.79 141.2 129.16 134.69 139.2 144.58"/>
        <polygon class="cls-2" points="158.95 71.13 144.39 44.65 145.26 38.49 158.95 71.13"/>
        <polygon class="cls-2" points="144.39 44.65 150.69 131.34 134.74 79.72 144.39 44.65"/>
        <polygon class="cls-2" points="136.15 161.17 119.43 117.22 127.05 130.9 127.38 131.49 129.16 134.69 132.79 141.2 137.43 149.53 136.15 161.17"/>
        <polygon class="cls-2" points="92.57 190.25 88.85 205.47 76.15 198.79 92.57 190.25"/>
        <polygon class="cls-2" points="92.57 190.25 76.15 198.79 79.35 177.81 92.57 190.25"/>
        <polygon class="cls-2" points="215.83 116.66 207.28 120.92 205.67 118.78 204.71 113.18 215.83 116.66"/>
        <polygon class="cls-2" points="121.06 159.94 107.24 175.84 101.24 97.48 121.06 159.94"/>
        <polygon class="cls-2" points="144.39 44.65 134.74 79.72 128.9 .38 144.39 44.65"/>
        <polygon class="cls-2" points="65.41 120.27 66.14 163.63 56.33 166.57 58.19 157.09 58.64 154.75 59.11 152.37 60.28 146.4 61 142.76 62.45 135.38 62.75 133.82 65.41 120.27"/>
        <polygon class="cls-2" points="52.3 186.22 41.09 180.31 56.33 166.57 52.3 186.22"/>
        <polygon class="cls-2" points="56.33 166.57 41.09 180.31 46.65 167.37 56.33 166.57"/>
        <polygon class="cls-2" points="145.26 38.49 144.39 44.65 128.9 .38 145.26 38.49"/>
        <polygon class="cls-2" points="120.17 45.59 128.9 .38 134.74 79.72 120.17 45.59"/>
        <polygon class="cls-2" points="134.74 79.72 139.2 144.58 129.16 134.69 127.38 131.49 134.74 79.72"/>
        <polygon class="cls-2" points="120.17 45.59 134.74 79.72 127.38 131.49 127.05 130.9 120.17 45.59"/>
        <polygon class="cls-2" points="120.17 45.59 127.05 130.9 119.43 117.22 115.74 110.15 120.17 45.59"/>
        <polygon class="cls-2" points="120.17 45.59 115.74 110.15 114.59 107.92 112.75 73.24 119.25 49.03 120.17 45.59"/>
        <polygon class="cls-2" points="112.75 73.24 114.59 107.92 109.44 98.03 112.75 73.24"/>
        <polygon class="cls-2" points="46.65 167.37 41.09 180.31 30.32 174.64 46.65 167.37"/>
        <polygon class="cls-2" points="46.65 167.37 30.32 174.64 36.24 162.19 46.65 167.37"/>
        <polygon class="cls-2" points="56.33 166.57 46.65 167.37 58.19 157.09 56.33 166.57"/>
        <polygon class="cls-2" points="173.28 103.35 175.28 103.98 173.38 106.4 173.28 103.35"/>
        <polygon class="cls-2" points="173.28 103.35 173.38 106.4 172.03 108.11 171.96 108.23 170.65 104.48 173.28 103.35"/>
        <polygon class="cls-2" points="173.28 103.35 170.65 104.48 169.88 102.29 173.28 103.35"/>
        <polygon class="cls-2" points="58.19 157.09 46.65 167.37 51.74 155.53 58.64 154.75 58.19 157.09"/>
        <polygon class="cls-2" points="30.32 174.64 19.95 169.18 36.24 162.19 30.32 174.64"/>
        <polygon class="cls-2" points="58.64 154.75 51.74 155.53 59.11 152.37 58.64 154.75"/>
        <polygon class="cls-2" points="36.24 162.19 19.95 169.18 26.22 157.19 36.24 162.19"/>
        <polygon class="cls-2" points="51.74 155.53 46.65 167.37 36.24 162.19 51.74 155.53"/>
        <polygon class="cls-2" points="51.74 155.53 36.24 162.19 41.68 150.77 51.74 155.53"/>
        <polygon class="cls-2" points="59.11 152.37 51.74 155.53 56.41 144.66 60.28 146.4 59.11 152.37"/>
        <polygon class="cls-2" points="26.22 157.19 19.95 169.18 9.98 163.93 26.22 157.19"/>
        <polygon class="cls-2" points="56.41 144.66 51.74 155.53 41.68 150.77 56.41 144.66"/>
        <polygon class="cls-2" points="41.68 150.77 36.24 162.19 26.22 157.19 41.68 150.77"/>
        <polygon class="cls-2" points="41.68 150.77 26.22 157.19 31.97 146.18 41.68 150.77"/>
        <polygon class="cls-2" points="26.22 157.19 9.98 163.93 16.55 152.37 26.22 157.19"/>
        <polygon class="cls-2" points="60.28 146.4 56.41 144.66 61 142.76 60.28 146.4"/>
        <polygon class="cls-2" points="61 142.76 56.41 144.66 60.72 134.64 62.45 135.38 61 142.76"/>
        <polygon class="cls-2" points="56.41 144.66 41.68 150.77 46.67 140.28 56.41 144.66"/>
        <polygon class="cls-2" points="62.45 135.38 60.72 134.64 62.75 133.82 62.45 135.38"/>
        <polygon class="cls-2" points="60.72 134.64 56.41 144.66 46.67 140.28 60.72 134.64"/>
        <polygon class="cls-2" points="16.55 152.37 31.97 146.18 26.22 157.19 16.55 152.37"/>
        <polygon class="cls-2" points="41.68 150.77 31.97 146.18 46.67 140.28 41.68 150.77"/>
        <polygon class="cls-2" points="16.55 152.37 9.98 163.93 .38 158.87 16.55 152.37"/>
      </g>
      <g>
        <line class="cls-1" x1="84.03" y1="58.6" x2="72.91" y2="98.94"/>
        <line class="cls-1" x1="52.3" y1="186.22" x2="63.98" y2="192.37"/>
        <line class="cls-1" x1="204.71" y1="113.18" x2="200.47" y2="111.86"/>
        <line class="cls-1" x1="104.21" y1="87.98" x2="84.03" y2="58.6"/>
        <line class="cls-1" x1="332.95" y1="172.45" x2="341.51" y2="165.29"/>
        <line class="cls-1" x1="349.65" y1="158.49" x2="334.09" y2="153.63"/>
        <line class="cls-1" x1="323.93" y1="179.99" x2="332.95" y2="172.45"/>
        <line class="cls-1" x1="314.42" y1="187.94" x2="323.93" y2="179.99"/>
        <line class="cls-1" x1="304.37" y1="196.33" x2="314.42" y2="187.94"/>
        <line class="cls-1" x1="341.51" y1="165.29" x2="349.65" y2="158.49"/>
        <line class="cls-1" x1="229.81" y1="258.65" x2="244.27" y2="246.56"/>
        <line class="cls-1" x1="334.09" y1="153.63" x2="319.09" y2="148.94"/>
        <line class="cls-1" x1="195.85" y1="261.84" x2="214.34" y2="271.58"/>
        <line class="cls-1" x1="244.27" y1="246.56" x2="257.83" y2="233.05"/>
        <line class="cls-1" x1="257.83" y1="233.05" x2="270.64" y2="219.6"/>
        <line class="cls-1" x1="282.55" y1="212.52" x2="293.74" y2="205.22"/>
        <line class="cls-1" x1="293.74" y1="205.22" x2="304.37" y2="196.33"/>
        <line class="cls-1" x1="214.34" y1="271.58" x2="229.81" y2="258.65"/>
        <line class="cls-1" x1="319.09" y1="148.94" x2="304.6" y2="144.41"/>
        <line class="cls-1" x1="178.29" y1="252.59" x2="195.85" y2="261.84"/>
        <line class="cls-1" x1="290.71" y1="137.82" x2="282.17" y2="129.54"/>
        <line class="cls-1" x1="304.6" y1="144.41" x2="290.71" y2="137.82"/>
        <line class="cls-1" x1="268.45" y1="116.59" x2="258.79" y2="110.34"/>
        <line class="cls-1" x1="268.45" y1="116.59" x2="282.17" y2="129.54"/>
        <line class="cls-1" x1="245.02" y1="117.96" x2="258.79" y2="110.34"/>
        <line class="cls-1" x1="167.54" y1="255.11" x2="173.07" y2="249.84"/>
        <line class="cls-1" x1="115.97" y1="219.76" x2="130.47" y2="227.4"/>
        <line class="cls-1" x1="152.18" y1="245.99" x2="143.81" y2="234.43"/>
        <line class="cls-1" x1="167.54" y1="255.11" x2="152.18" y2="245.99"/>
        <line class="cls-1" x1="239.87" y1="124.17" x2="239.16" y2="123.95"/>
        <line class="cls-1" x1="102.11" y1="212.46" x2="115.97" y2="219.76"/>
        <line class="cls-1" x1="119.04" y1="207.47" x2="133.47" y2="220.15"/>
        <line class="cls-1" x1="196.65" y1="106.76" x2="183.68" y2="93.3"/>
        <line class="cls-1" x1="239.16" y1="123.95" x2="227.31" y2="120.25"/>
        <line class="cls-1" x1="88.85" y1="205.47" x2="102.11" y2="212.46"/>
        <line class="cls-1" x1="227.31" y1="120.25" x2="215.83" y2="116.66"/>
        <line class="cls-1" x1="76.15" y1="198.79" x2="88.85" y2="205.47"/>
        <line class="cls-1" x1="63.98" y1="192.37" x2="76.15" y2="198.79"/>
        <line class="cls-1" x1="215.83" y1="116.66" x2="204.71" y2="113.18"/>
        <line class="cls-1" x1="145.26" y1="38.49" x2="158.95" y2="71.13"/>
        <line class="cls-1" x1="41.09" y1="180.31" x2="52.3" y2="186.22"/>
        <line class="cls-1" x1="145.26" y1="38.49" x2="128.9" y2=".38"/>
        <line class="cls-1" x1="128.9" y1=".38" x2="120.17" y2="45.59"/>
        <line class="cls-1" x1="65.41" y1="120.27" x2="72.91" y2="98.94"/>
        <line class="cls-1" x1="112.75" y1="73.24" x2="109.44" y2="98.03"/>
        <line class="cls-1" x1="30.32" y1="174.64" x2="41.09" y2="180.31"/>
        <line class="cls-1" x1="175.28" y1="103.98" x2="173.28" y2="103.35"/>
        <line class="cls-1" x1="19.95" y1="169.18" x2="30.32" y2="174.64"/>
        <line class="cls-1" x1="173.28" y1="103.35" x2="169.88" y2="102.29"/>
        <line class="cls-1" x1="9.98" y1="163.93" x2="19.95" y2="169.18"/>
        <line class="cls-1" x1="31.97" y1="146.18" x2="16.55" y2="152.37"/>
        <line class="cls-1" x1="60.72" y1="134.64" x2="46.67" y2="140.28"/>
        <line class="cls-1" x1="62.75" y1="133.82" x2="60.72" y2="134.64"/>
        <line class="cls-1" x1="16.55" y1="152.37" x2=".38" y2="158.87"/>
        <line class="cls-1" x1=".38" y1="158.87" x2="9.98" y2="163.93"/>
        <line class="cls-1" x1="46.67" y1="140.28" x2="31.97" y2="146.18"/>
        <line class="cls-1" x1="115.74" y1="110.15" x2="119.43" y2="117.22"/>
        <line class="cls-1" x1="137.43" y1="149.53" x2="132.79" y2="141.2"/>
        <line class="cls-1" x1="169.88" y1="102.29" x2="158.95" y2="71.13"/>
        <line class="cls-1" x1="270.64" y1="219.6" x2="274.43" y2="217.35"/>
        <line class="cls-1" x1="274.43" y1="217.35" x2="282.55" y2="212.52"/>
        <line class="cls-1" x1="236.36" y1="175.73" x2="235.83" y2="175.64"/>
        <line class="cls-1" x1="260.46" y1="187.45" x2="251.79" y2="180.36"/>
        <line class="cls-1" x1="251.79" y1="180.36" x2="248.68" y2="177.82"/>
        <line class="cls-1" x1="229.13" y1="177.42" x2="235.83" y2="175.64"/>
        <line class="cls-1" x1="173.07" y1="249.84" x2="178.29" y2="252.59"/>
        <line class="cls-1" x1="177.33" y1="219.17" x2="174.11" y2="220.34"/>
        <line class="cls-1" x1="158.34" y1="242.08" x2="161.58" y2="243.79"/>
        <line class="cls-1" x1="204.83" y1="196" x2="195.65" y2="208.19"/>
        <line class="cls-1" x1="195.65" y1="208.19" x2="191.79" y2="213.31"/>
        <line class="cls-1" x1="216.93" y1="182.84" x2="219.57" y2="179.97"/>
        <line class="cls-1" x1="130.47" y1="227.4" x2="143.81" y2="234.43"/>
        <line class="cls-1" x1="143.81" y1="234.43" x2="145.65" y2="235.4"/>
        <line class="cls-1" x1="137.19" y1="220.56" x2="147.18" y2="221.67"/>
        <line class="cls-1" x1="221.79" y1="138.79" x2="217.89" y2="134.09"/>
        <line class="cls-1" x1="232.12" y1="133.53" x2="235.12" y2="129.91"/>
        <line class="cls-1" x1="172.03" y1="108.11" x2="173.38" y2="106.4"/>
        <line class="cls-1" x1="150.43" y1="145.62" x2="157.38" y2="133.5"/>
        <line class="cls-1" x1="157.38" y1="133.5" x2="160.62" y2="127.85"/>
        <line class="cls-1" x1="58.19" y1="157.09" x2="56.33" y2="166.57"/>
        <line class="cls-1" x1="112.75" y1="73.24" x2="119.25" y2="49.03"/>
        <line class="cls-1" x1="119.25" y1="49.03" x2="120.17" y2="45.59"/>
        <line class="cls-1" x1="114.59" y1="107.92" x2="115.74" y2="110.15"/>
        <line class="cls-1" x1="171.96" y1="108.23" x2="170.65" y2="104.48"/>
        <line class="cls-1" x1="170.65" y1="104.48" x2="169.88" y2="102.29"/>
        <line class="cls-1" x1="248.68" y1="177.82" x2="242.5" y2="176.77"/>
        <line class="cls-1" x1="242.5" y1="176.77" x2="236.36" y2="175.73"/>
        <line class="cls-1" x1="219.57" y1="179.97" x2="225.42" y2="178.41"/>
        <line class="cls-1" x1="225.42" y1="178.41" x2="229.13" y2="177.42"/>
        <line class="cls-1" x1="161.58" y1="243.79" x2="166.02" y2="246.13"/>
        <line class="cls-1" x1="166.02" y1="246.13" x2="173.07" y2="249.84"/>
        <line class="cls-1" x1="191.79" y1="213.31" x2="191.4" y2="213.47"/>
        <line class="cls-1" x1="191.4" y1="213.47" x2="181.58" y2="217.45"/>
        <line class="cls-1" x1="181.58" y1="217.45" x2="178.5" y2="218.7"/>
        <line class="cls-1" x1="178.5" y1="218.7" x2="177.33" y2="219.17"/>
        <line class="cls-1" x1="174.11" y1="220.34" x2="165.73" y2="223.35"/>
        <line class="cls-1" x1="165.73" y1="223.35" x2="161.82" y2="224.77"/>
        <line class="cls-1" x1="145.65" y1="235.4" x2="150.53" y2="237.97"/>
        <line class="cls-1" x1="150.53" y1="237.97" x2="158.34" y2="242.08"/>
        <line class="cls-1" x1="204.83" y1="196" x2="213.94" y2="186.09"/>
        <line class="cls-1" x1="213.94" y1="186.09" x2="216.93" y2="182.84"/>
        <line class="cls-1" x1="147.18" y1="221.67" x2="149.74" y2="222.21"/>
        <line class="cls-1" x1="149.74" y1="222.21" x2="152.41" y2="222.78"/>
        <line class="cls-1" x1="152.41" y1="222.78" x2="156.05" y2="223.55"/>
        <line class="cls-1" x1="156.05" y1="223.55" x2="161.82" y2="224.77"/>
        <line class="cls-1" x1="133.47" y1="220.15" x2="135.46" y2="220.37"/>
        <line class="cls-1" x1="135.46" y1="220.37" x2="137.19" y2="220.56"/>
        <line class="cls-1" x1="212.71" y1="127.84" x2="210.26" y2="124.88"/>
        <line class="cls-1" x1="235.12" y1="129.91" x2="239.46" y2="124.67"/>
        <line class="cls-1" x1="205.67" y1="118.78" x2="207.28" y2="120.92"/>
        <line class="cls-1" x1="207.28" y1="120.92" x2="208.22" y2="122.16"/>
        <line class="cls-1" x1="208.22" y1="122.16" x2="210.26" y2="124.88"/>
        <line class="cls-1" x1="173.38" y1="106.4" x2="175.28" y2="103.98"/>
        <line class="cls-1" x1="175.28" y1="103.98" x2="183.68" y2="93.3"/>
        <line class="cls-1" x1="166.37" y1="117.91" x2="164.81" y2="120.61"/>
        <line class="cls-1" x1="164.81" y1="120.61" x2="161.93" y2="125.59"/>
        <line class="cls-1" x1="161.93" y1="125.59" x2="160.62" y2="127.85"/>
        <line class="cls-1" x1="58.64" y1="154.75" x2="58.19" y2="157.09"/>
        <line class="cls-1" x1="104.21" y1="87.98" x2="109.44" y2="98.03"/>
        <line class="cls-1" x1="109.44" y1="98.03" x2="114.59" y2="107.92"/>
        <line class="cls-1" x1="132.79" y1="141.2" x2="129.16" y2="134.69"/>
        <line class="cls-1" x1="129.16" y1="134.69" x2="127.38" y2="131.49"/>
        <line class="cls-1" x1="127.38" y1="131.49" x2="127.05" y2="130.9"/>
        <line class="cls-1" x1="127.05" y1="130.9" x2="119.43" y2="117.22"/>
        <line class="cls-1" x1="217.89" y1="134.09" x2="217.63" y2="133.78"/>
        <line class="cls-1" x1="217.63" y1="133.78" x2="212.71" y2="127.84"/>
        <line class="cls-1" x1="239.46" y1="124.67" x2="239.87" y2="124.17"/>
        <line class="cls-1" x1="239.87" y1="124.17" x2="245.02" y2="117.96"/>
        <line class="cls-1" x1="202.32" y1="114.32" x2="205.67" y2="118.78"/>
        <line class="cls-1" x1="170.61" y1="110.57" x2="166.37" y2="117.91"/>
        <line class="cls-1" x1="59.11" y1="152.37" x2="58.64" y2="154.75"/>
        <line class="cls-1" x1="196.65" y1="106.76" x2="200.47" y2="111.86"/>
        <line class="cls-1" x1="200.47" y1="111.86" x2="202.32" y2="114.32"/>
        <line class="cls-1" x1="172.03" y1="108.11" x2="171.96" y2="108.23"/>
        <line class="cls-1" x1="171.96" y1="108.23" x2="170.61" y2="110.57"/>
        <line class="cls-1" x1="62.45" y1="135.38" x2="61" y2="142.76"/>
        <line class="cls-1" x1="61" y1="142.76" x2="60.28" y2="146.4"/>
        <line class="cls-1" x1="60.28" y1="146.4" x2="59.11" y2="152.37"/>
        <line class="cls-1" x1="65.41" y1="120.27" x2="62.75" y2="133.82"/>
        <line class="cls-1" x1="62.75" y1="133.82" x2="62.45" y2="135.38"/>
      </g>
    </g>
  </g>
</svg>